<?xml version="1.0" encoding="utf-8"?>
<!-- Generator: Adobe Illustrator 27.6.1, SVG Export Plug-In . SVG Version: 6.00 Build 0)  -->
<svg version="1.1" id="OBJECTS" xmlns="http://www.w3.org/2000/svg" xmlns:xlink="http://www.w3.org/1999/xlink" x="0px" y="0px"
	 viewBox="0 0 500 500" style="enable-background:new 0 0 500 500;" xml:space="preserve">
<style type="text/css">
	.st0{fill:#76C893;}
	.st1{fill:#A8DB93;}
	.st2{opacity:0.1;fill:#E7622C;}
	.st3{fill:#34A0A4;}
	.st4{clip-path:url(#SVGID_00000085234657228987923450000015160000106797249726_);fill:#0E2C44;}
	.st5{fill:#288989;}
	.st6{opacity:0.4;fill:#FFFFFF;}
	.st7{fill:#D9ED92;}
	.st8{opacity:0.2;fill:url(#SVGID_00000082356843196208955750000001451230660878844061_);}
	.st9{opacity:0.3;fill:url(#SVGID_00000183962126532459361840000007094375485776528769_);}
	.st10{opacity:0.3;fill:url(#SVGID_00000057134344660198839620000013687515675983648933_);}
	.st11{fill:#0E2C44;}
	.st12{clip-path:url(#SVGID_00000067209358193350552460000010863233614959717565_);fill:#0E2C44;}
	.st13{clip-path:url(#SVGID_00000145022350408404497570000000261390544201263295_);fill:#0E2C44;}
	.st14{clip-path:url(#SVGID_00000086677603531798930860000017537668848109187462_);fill:#0E2C44;}
	.st15{fill:#FF8692;}
	.st16{clip-path:url(#SVGID_00000044864955688482835380000007684689093855270032_);fill:#0B4568;}
	.st17{clip-path:url(#SVGID_00000044864955688482835380000007684689093855270032_);fill:#FF8692;}
	.st18{clip-path:url(#SVGID_00000044864955688482835380000007684689093855270032_);fill:#FFFFFF;}
	.st19{clip-path:url(#SVGID_00000091002145483943854200000003862252076166448010_);}
	.st20{fill:#FFFFFF;}
	.st21{fill:none;stroke:#B7B8D9;stroke-width:25.5118;stroke-linecap:round;stroke-miterlimit:10;}
	.st22{fill:#1D6D6D;}
</style>
<g>
	<polygon class="st0" points="104,312.6 199,280.2 193.5,376 125.3,391.8 	"/>
	<polygon class="st0" points="199,280.2 374,291.2 343,386.3 192.8,353.2 	"/>
	<g>
		<path class="st1" d="M205.5,278.1c53.9,3.3,114.3,7.8,168.1,12.4C319.7,287.2,259.2,282.8,205.5,278.1L205.5,278.1z"/>
	</g>
	<polygon class="st0" points="104,312.6 64,334.6 126.7,349.1 	"/>
	<g>
		<path class="st1" d="M64,334.6c6.3-4.1,12.8-7.9,19.4-11.7c6.6-3.6,13.1-7.6,20.1-10.4C90.5,319.7,77.2,328,64,334.6L64,334.6z"/>
	</g>
</g>
<polygon class="st2" points="182.5,395.9 78.5,424.2 298.9,439.3 399.5,382.2 "/>
<path class="st3" d="M165,337.4c-0.3,0-0.6,0-0.9,0c-13.1-1.3-24.1-8-31.1-18.7c-6.1-9.4-8.5-20.9-7.5-32c0.7-7.2,6.4-17,0.2-23.2
	c-2.5-2.5-6.1-3.4-9.2-2.4c-4.1,1.4-7.1,6.5-8,14c-0.6,4.8-5,8.2-9.8,7.6c-4.8-0.6-8.2-5-7.6-9.8c1.8-14.3,9-24.7,19.7-28.4
	c9.3-3.2,20.1-0.7,27.3,6.5c7.7,7.7,10.1,19,6.3,30.4c-2.2,6.6-2.2,14,0.1,20.6c3.4,9.4,11.2,16.9,21.3,17.9
	c4.8,0.5,8.3,4.8,7.9,9.6C173.3,334.1,169.5,337.4,165,337.4z"/>
<g>
	<defs>
		<path id="SVGID_1_" d="M165,337.4c-0.3,0-0.6,0-0.9,0c-13.1-1.3-24.1-8-31.1-18.7c-6.1-9.4-8.5-20.9-7.5-32
			c0.7-7.2,6.4-17,0.2-23.2c-2.5-2.5-6.1-3.4-9.2-2.4c-4.1,1.4-7.1,6.5-8,14c-0.6,4.8-5,8.2-9.8,7.6c-4.8-0.6-8.2-5-7.6-9.8
			c1.8-14.3,9-24.7,19.7-28.4c9.3-3.2,20.1-0.7,27.3,6.5c7.7,7.7,10.1,19,6.3,30.4c-2.2,6.6-2.2,14,0.1,20.6
			c3.4,9.4,11.2,16.9,21.3,17.9c4.8,0.5,8.3,4.8,7.9,9.6C173.3,334.1,169.5,337.4,165,337.4z"/>
	</defs>
	<clipPath id="SVGID_00000118358972433462707860000003388776765816408487_">
		<use xlink:href="#SVGID_1_"  style="overflow:visible;"/>
	</clipPath>
	<path style="clip-path:url(#SVGID_00000118358972433462707860000003388776765816408487_);fill:#0E2C44;" d="M125.3,240.6l1,14.5
		l12.4-6.5l3.8,4.8l-6.2,10l12.4,2.8v7.9l-9.3,3.4l6.9,7.2v6.9l-13.4,3.8l15.8,6.5l-10,8.3l15.5,0.3
		C154.2,310.5,167,251.3,125.3,240.6z"/>
</g>
<path class="st3" d="M270.7,262.4c0,0,11.2,35.5,46.3,34.1c-1.1,24.3-11.7,40.2-25.7,40.2C277.3,336.7,270.7,262.4,270.7,262.4z"/>
<path class="st3" d="M215.1,253.3c0,0-47.8,72.1-27.6,95.1c20.2,23,105.2,22.5,111.1-4.6c6-27.1-36.7-95.5-36.7-95.5L215.1,253.3z"
	/>
<path class="st5" d="M274.1,269.5c-6.7-12.4-12.2-21.2-12.2-21.2l-46.8,5.1c0,0-8.9,13.5-17.4,30.6C224.3,287,250.3,281,274.1,269.5
	z"/>
<path class="st3" d="M197.7,284c-11.2,22.5-21.6,51.4-10.1,64.4c20.2,23,105.2,22.5,111.1-4.6c3.8-17.4-12.5-51.9-24.6-74.4
	C250.3,281,224.3,287,197.7,284z"/>
<path class="st6" d="M271.6,314c0,20.5-8.7,36.7-25,36.7s-20-16.7-20-37.2c0-20.5,3.6-37.2,20-37.2S271.6,293.4,271.6,314z"/>
<polygon class="st5" points="199.9,318.6 300.1,321.3 302.4,335.5 "/>
<g>
	<polygon class="st7" points="104,312.6 298.2,327.7 295.5,431.1 105.3,420 	"/>
	<g>
		<path class="st1" d="M104,312.6c62.3,4.2,132.1,9.6,194.3,15.2C235.9,323.5,166.1,318.1,104,312.6L104,312.6z"/>
	</g>
	<polygon class="st0" points="298.2,327.7 374,291.2 367.1,384.9 295.5,431.1 	"/>
	<polygon class="st0" points="297.8,328.2 323.9,373.2 369.4,329.6 	"/>
	<polygon class="st7" points="298.2,327.7 345.1,364.9 436,316.7 374,291.2 	"/>
	
		<linearGradient id="SVGID_00000004533050593522853760000004836964099511701167_" gradientUnits="userSpaceOnUse" x1="304.6528" y1="323.6037" x2="340.4757" y2="323.6037">
		<stop  offset="0" style="stop-color:#B98654"/>
		<stop  offset="1" style="stop-color:#9B683D"/>
	</linearGradient>
	
		<circle style="opacity:0.2;fill:url(#SVGID_00000004533050593522853760000004836964099511701167_);" cx="322.6" cy="323.6" r="17.9"/>
	<g>
		<path class="st1" d="M298.2,327.7c15.8,12.2,31.5,24.5,47.1,36.8c0,0-0.5,0-0.5,0l22.7-12.1c20.3-10.7,48-25.3,68.4-35.7
			c-20.1,11-47.7,25.8-68,36.6c0,0-22.8,12-22.8,12s-0.3,0.1-0.3,0.1C329.3,353,313.8,340.4,298.2,327.7L298.2,327.7z"/>
	</g>
	<polygon class="st1" points="329.2,409 332.3,382.5 347.8,376.3 348.9,395.9 	"/>
</g>
<path class="st3" d="M221.5,272.6c-131.8,12-83.2-123.3,3.1-137.1C310.9,121.7,411.7,255.3,221.5,272.6z"/>
<path class="st3" d="M190.1,245.1c38.6,13.1,79.2,4.8,113-20c14.1-10.8,18.5-25.7,19.8-41.3c-16.4-30.1-58.8-54.5-98.2-48.2
	c-42.3,6.8-75.5,42.7-82.9,76.1C150.5,229.3,172,238.5,190.1,245.1z"/>
<path class="st5" d="M322.8,183.7c-1.3,15.7-5.7,30.5-19.8,41.3c-33.8,24.8-74.4,33.1-113,20c-18.1-6.6-39.6-15.7-48.4-33.4
	c-7.7,34.8,12.6,67,79.8,60.9C324.8,263.2,342.3,219.5,322.8,183.7z"/>
<path class="st3" d="M260.4,149.8c0,0,27.5-35.6,50.2-37.2c18.8,25.9-2.4,64.7-2.4,64.7"/>
<path class="st3" d="M182.7,161.9c0,0-11-24.3-43.2-24.3c-16.5,16.2,9.4,68,9.4,68"/>
<linearGradient id="SVGID_00000124123497494284292810000014085723039024953777_" gradientUnits="userSpaceOnUse" x1="155.8568" y1="198.7374" x2="155.8568" y2="149.3835">
	<stop  offset="0" style="stop-color:#B7B8D9"/>
	<stop  offset="1" style="stop-color:#FFFFFF"/>
</linearGradient>
<path style="opacity:0.3;fill:url(#SVGID_00000124123497494284292810000014085723039024953777_);" d="M171.7,173.3
	c0,0-10.6-21.8-29-23.9c-5.5,14.2-2.4,29.9,8.6,49.4"/>
<linearGradient id="SVGID_00000120535757534973543690000007270856589096217531_" gradientUnits="userSpaceOnUse" x1="292.0486" y1="164.3515" x2="292.0486" y2="120.6611">
	<stop  offset="0" style="stop-color:#B7B8D9"/>
	<stop  offset="1" style="stop-color:#FFFFFF"/>
</linearGradient>
<path style="opacity:0.3;fill:url(#SVGID_00000120535757534973543690000007270856589096217531_);" d="M273.7,148.2
	c0,0,16.9-26.3,33.7-27.5c7.8,17-2.4,43.7-2.4,43.7"/>
<g>
	<path class="st11" d="M171.7,173.3c-6.2-10.9-16-21.8-29.1-23.4c0,0,0.5-0.3,0.5-0.3c-1.5,4-2.4,8.2-2.6,12.5
		c-0.5,13,4.8,25.4,10.7,36.7c-8.8-14.6-15.7-32.8-9.1-49.5c0,0,0.1-0.3,0.1-0.3s0.4,0,0.4,0C156.1,150.6,166,161.8,171.7,173.3
		L171.7,173.3z"/>
</g>
<g>
	<path class="st11" d="M273.7,148.2c7.3-11.2,19.6-26.5,33.7-28c0,0,0.4,0,0.4,0l0.1,0.3c5.7,14,2.2,30.2-2.8,43.9
		c4.2-13.6,7.6-29.9,1.9-43.5c0,0,0.5,0.3,0.5,0.3C293.8,122.5,281.4,137.7,273.7,148.2L273.7,148.2z"/>
</g>
<g>
	<path class="st11" d="M155.6,189.8c-2.1-1-3.9-2.5-5.1-4.4C152.7,186.3,154.4,187.8,155.6,189.8L155.6,189.8z"/>
</g>
<g>
	<path class="st11" d="M159.5,185.8c-2-1.5-3.4-3.4-4.3-5.7C157.2,181.6,158.6,183.5,159.5,185.8L159.5,185.8z"/>
</g>
<g>
	<path class="st11" d="M162.3,181.7c-1.2-1.7-1.7-3.6-1.6-5.7C161.9,177.8,162.4,179.7,162.3,181.7L162.3,181.7z"/>
</g>
<g>
	<path class="st11" d="M165,173.7c1.9,0.2,3.5,1,4.7,2.4C167.9,175.9,166.3,175.1,165,173.7L165,173.7z"/>
</g>
<g>
	<path class="st11" d="M279.2,150.6c0.5-1.5,1.6-2.6,3.1-3.2C281.8,148.9,280.7,150,279.2,150.6L279.2,150.6z"/>
</g>
<g>
	<path class="st11" d="M285.9,155c-0.4-2.2-0.2-4.4,0.8-6.5C287.1,150.8,286.8,153,285.9,155L285.9,155z"/>
</g>
<g>
	<path class="st11" d="M292.5,153.4c1.1,1.6,1.5,3.4,1.2,5.3C292.6,157.1,292.2,155.3,292.5,153.4L292.5,153.4z"/>
</g>
<g>
	<path class="st11" d="M300.8,157.9c-0.3,1.9-1.2,3.6-2.7,4.9C298.3,160.8,299.3,159.2,300.8,157.9L300.8,157.9z"/>
</g>
<g>
	<defs>
		<path id="SVGID_00000049199685341222509390000011871684555777693313_" d="M221.5,272.6c-131.8,12-83.2-123.3,3.1-137.1
			C310.9,121.7,411.7,255.3,221.5,272.6z"/>
	</defs>
	<clipPath id="SVGID_00000091731492543913371050000018431420629161402807_">
		<use xlink:href="#SVGID_00000049199685341222509390000011871684555777693313_"  style="overflow:visible;"/>
	</clipPath>
	<path style="clip-path:url(#SVGID_00000091731492543913371050000018431420629161402807_);fill:#0E2C44;" d="M181.8,140.6
		c0,0,10.6,32.2,21.6,35.4c3.1-12.4-3.1-44.6-3.1-44.6l7.1-3.2c0,0,6.3,36.8,23.1,43.2c5.9-8.7,0.8-48.3,0.8-48.3l5.1-1.8
		c0,0,4.7,34,15.7,40.5c5.9-8.7,7.1-40.5,7.1-40.5S215.9,107.5,181.8,140.6z"/>
	<path style="clip-path:url(#SVGID_00000091731492543913371050000018431420629161402807_);fill:#0E2C44;" d="M161.8,287.9
		c0,0,22.6-21.1,22-32.4C172.9,257,149,274,149,274l-4.7-5.4c0,0,27.6-18.6,27.8-36.6c-8.7-2.4-38.8,16.1-38.8,16.1l-3-4.1
		c0,0,25.8-16.2,27.7-28.7c-8.7-2.4-34.4,7.5-34.4,7.5S125.3,267.7,161.8,287.9z"/>
	<path style="clip-path:url(#SVGID_00000091731492543913371050000018431420629161402807_);fill:#0E2C44;" d="M352,199.1
		c0,0-26.5-13.6-34.7-7.6c6.1,10.6,30.2,27.4,30.2,27.4l-1.9,7.4c0,0-27-19.9-40.5-11.7c2.2,10.2,30.3,32.7,30.3,32.7l-1.7,5
		c0,0-24.3-19.2-34.6-15.3c2.2,10.2,21.8,32.2,21.8,32.2S353.9,246.4,352,199.1z"/>
</g>
<ellipse class="st3" cx="187.1" cy="316.7" rx="17.9" ry="20.2"/>
<ellipse class="st3" cx="317.1" cy="316.7" rx="17.9" ry="20.2"/>
<path class="st6" d="M187.1,320c-7.9,0-14.6-4.1-17-9.7c-0.6,2-0.9,4.1-0.9,6.4c0,11.2,8,20.2,17.9,20.2c9.9,0,17.9-9,17.9-20.2
	c0-2.2-0.3-4.4-0.9-6.4C201.7,316,195,320,187.1,320z"/>
<path class="st6" d="M317.1,320c-7.9,0-15.1-4-17.5-9.6c-0.6,2-0.5,4.1-0.5,6.3c0,11.2,8,20.2,17.9,20.2c9.9,0,17.9-9,17.9-20.2
	c0-2.2-0.3-4.4-0.9-6.4C331.7,316,325,320,317.1,320z"/>
<g>
	<path class="st11" d="M201.5,305.5c4.6,6.9,5.3,15.9,0.2,22.8C205.5,320.4,204.9,313.4,201.5,305.5L201.5,305.5z"/>
</g>
<g>
	<path class="st11" d="M188.5,321.5c0.8,4.5,0.8,11.8,5.5,14C188.4,334.6,187.8,326,188.5,321.5L188.5,321.5z"/>
</g>
<g>
	<path class="st11" d="M176.7,321.9c0,4.3-0.6,8.9,1.8,12.6C174.9,331.6,175.3,325.9,176.7,321.9L176.7,321.9z"/>
</g>
<g>
	<path class="st11" d="M299.3,310.9c0.2,7.1,1.1,14.4,5.4,20.3C299.2,326.1,298,317.8,299.3,310.9L299.3,310.9z"/>
</g>
<g>
	<path class="st11" d="M316.1,319.8c1.9,5.3,2.8,12.2-0.9,17C317.6,331.5,316.6,325.5,316.1,319.8L316.1,319.8z"/>
</g>
<g>
	<path class="st11" d="M326.2,318.4c3,3.5,4.4,8.6,3,13.1C329.2,327,328.1,322.7,326.2,318.4L326.2,318.4z"/>
</g>
<g>
	<path class="st11" d="M276.2,273.1c9.8,14.6,14.1,32.8,12.9,50.2c0,0-0.3,3.5-0.3,3.5C289.4,308.2,285.4,289.3,276.2,273.1
		L276.2,273.1z"/>
</g>
<g>
	<path class="st11" d="M202.7,273.5c21.7-0.6,43.4-3.2,64.5-8.5c0,0,4.2-1.1,4.2-1.1C249.4,271.4,225.9,274.3,202.7,273.5
		L202.7,273.5z"/>
</g>
<g>
	<path class="st11" d="M211,287.8c-1.5,8.4-3.6,16.7-6.4,24.8C206,304.2,208.2,295.8,211,287.8L211,287.8z"/>
</g>
<g>
	<ellipse class="st7" cx="195.5" cy="213" rx="23.7" ry="24.4"/>
	<g>
		<defs>
			<ellipse id="SVGID_00000160913549039917425280000016013573407526837421_" cx="195.5" cy="213" rx="23.7" ry="24.4"/>
		</defs>
		<clipPath id="SVGID_00000007392215358300674490000008785145320086432189_">
			<use xlink:href="#SVGID_00000160913549039917425280000016013573407526837421_"  style="overflow:visible;"/>
		</clipPath>
		
			<ellipse style="clip-path:url(#SVGID_00000007392215358300674490000008785145320086432189_);fill:#0E2C44;" cx="203.7" cy="203.5" rx="23.7" ry="24.4"/>
	</g>
	<ellipse class="st7" cx="282.2" cy="199.2" rx="23.7" ry="24.4"/>
	<g>
		<defs>
			<ellipse id="SVGID_00000034049847668547733650000012525812260323701924_" cx="282.2" cy="199.2" rx="23.7" ry="24.4"/>
		</defs>
		<clipPath id="SVGID_00000142147234981038288580000007180877752292364417_">
			<use xlink:href="#SVGID_00000034049847668547733650000012525812260323701924_"  style="overflow:visible;"/>
		</clipPath>
		
			<ellipse style="clip-path:url(#SVGID_00000142147234981038288580000007180877752292364417_);fill:#0E2C44;" cx="271.9" cy="193.9" rx="23.7" ry="24.4"/>
	</g>
</g>
<g>
	<path class="st6" d="M258.6,223.3c0,12.3-9.3,17.6-18.8,17.6c-9.5,0-15.6-5.3-15.6-17.6c0-12.3,8.7-22.8,18.1-22.8
		C251.8,200.5,258.6,211,258.6,223.3z"/>
	<g>
		<path class="st11" d="M231.6,205c-2.3-6.7-5.4-16.8-2.3-23.5c2.3-4.1,6.5-3.3,9.1,0c4.3,5.4,6.5,12.1,8.2,18.7
			c-1.5-4.3-3.2-8.5-5.3-12.5c-1.6-2.8-3.2-6-6.1-7.6c-1.9-1-4.1,0-5.1,1.9c-1.6,2.9-1.3,6.5-1.1,9.7
			C229.4,196.2,230.4,200.6,231.6,205L231.6,205z"/>
	</g>
	<path class="st15" d="M241.2,210.6c-12.3-3.6-12.3-7.6-3.1-10.3C247.4,197.4,251.6,200.6,241.2,210.6z"/>
	<g>
		<path class="st11" d="M241.2,210.6c1.4,3.2,2.2,6.5,2.3,9.9C242.1,217.4,241.3,214,241.2,210.6L241.2,210.6z"/>
	</g>
	<g>
		<defs>
			<path id="SVGID_00000170236876190611807000000000299625028426740646_" d="M248.3,221.9c-1,5.5-6.1,16.1-9,16.1
				c-2.9,0-4.9-10.1-3.9-15.6c4.4-1.2,7.5-4.3,7.5-4.3S244.7,221.1,248.3,221.9z"/>
		</defs>
		<clipPath id="SVGID_00000019669474053174100740000018021678510347552151_">
			<use xlink:href="#SVGID_00000170236876190611807000000000299625028426740646_"  style="overflow:visible;"/>
		</clipPath>
		<path style="clip-path:url(#SVGID_00000019669474053174100740000018021678510347552151_);fill:#0B4568;" d="M248.2,231.6
			c-2.3,4-6,6.4-8.9,6.4c-2.9,0-4.3-2.5-5.3-6.4c-3.9-16.1,4.8-13.5,10.9-13.5C251,218.1,251.6,225.6,248.2,231.6z"/>
		<path style="clip-path:url(#SVGID_00000019669474053174100740000018021678510347552151_);fill:#FF8692;" d="M243.9,236
			c-1,3.6-4.1,6.5-7,6.5c-2.9,0-4.4-2.9-3.4-6.5s4.1-6.5,7-6.5C243.4,229.5,244.9,232.4,243.9,236z"/>
		<path style="clip-path:url(#SVGID_00000019669474053174100740000018021678510347552151_);fill:#FFFFFF;" d="M236.6,221.7l1.4,2.2
			c0.2,0.3,0.6,0.3,0.8,0l1.6-2.3l4-0.3l0.7,1.7c0.2,0.4,0.7,0.4,0.9,0l2.2-4.1C248.3,218.9,244.5,213.7,236.6,221.7z"/>
	</g>
	<g>
		<defs>
			<path id="SVGID_00000064330569354557893070000013721504634553720488_" d="M241.2,210.6c-12.3-3.6-12.3-7.6-3.1-10.3
				C247.4,197.4,251.6,200.6,241.2,210.6z"/>
		</defs>
		<clipPath id="SVGID_00000124867235133098539400000000579191861348622238_">
			<use xlink:href="#SVGID_00000064330569354557893070000013721504634553720488_"  style="overflow:visible;"/>
		</clipPath>
		<g style="clip-path:url(#SVGID_00000124867235133098539400000000579191861348622238_);">
			<path class="st11" d="M233.5,209.1c-0.4-1.7-0.2-4.1,1.6-5.2c1.3-0.7,3.1-0.3,3.8,1.1c0.5,2-1,3.7-2.2,5c0.5-1.1,1.1-2.1,1.3-3.2
				c0.3-1.1,0.2-1.9-1-2.2C234.4,204,233.7,207.2,233.5,209.1L233.5,209.1z"/>
		</g>
		<g style="clip-path:url(#SVGID_00000124867235133098539400000000579191861348622238_);">
			<path class="st11" d="M244.3,207.6c-3.6-0.8-2.3-6.4,1.3-5.1c0.9,0.4,1.4,1.3,1.7,2c-0.7-0.6-1.3-1.1-2-1.3
				c-1.4-0.4-2.6,1.1-2.3,2.5C243.1,206.4,243.6,207.1,244.3,207.6L244.3,207.6z"/>
		</g>
	</g>
	<g>
		<path class="st11" d="M233.2,222.1c3.9,0.8,7.2-2.2,9.8-4.7c0,0,0.3,0.5,0.3,0.5c1.4,2.5,4.6,4.7,7.5,3.5c-2.1,1.5-5,0.5-6.8-1.1
			c-0.6-0.5-1.1-1.2-1.6-1.9l0.8,0.1C240.7,220.9,236.8,223.8,233.2,222.1L233.2,222.1z"/>
	</g>
	<g>
		<path class="st20" d="M230.1,234.3c-2.2,2.9-4.8,5.4-7.7,7.5C224.5,238.9,227.1,236.4,230.1,234.3L230.1,234.3z"/>
	</g>
	<g>
		<path class="st20" d="M227.9,231.7c-3.8,2.2-7.8,3.9-12,5.1C219.7,234.5,223.7,232.8,227.9,231.7L227.9,231.7z"/>
	</g>
	<g>
		<path class="st20" d="M226.3,227.9c-3.4,0.7-6.7,0.8-10.1,0.3C219.6,227.5,222.9,227.4,226.3,227.9L226.3,227.9z"/>
	</g>
	<g>
		<path class="st20" d="M255.2,231.9c3.5,0.9,6.8,2.3,9.8,4.3C261.5,235.3,258.2,233.9,255.2,231.9L255.2,231.9z"/>
	</g>
	<g>
		<path class="st20" d="M256.7,227.6c3.7-0.2,7.4,0.2,11,1.1C263.9,228.9,260.3,228.6,256.7,227.6L256.7,227.6z"/>
	</g>
	<g>
		<path class="st20" d="M256.7,222.3c3.4-0.9,6.9-1.3,10.4-1.1C263.7,222.2,260.3,222.6,256.7,222.3L256.7,222.3z"/>
	</g>
</g>
<path class="st21" d="M99.8,274"/>
<path class="st21" d="M165,328.7"/>
<path class="st11" d="M111.3,260.2l-4.6,2.3v-6.4l-6.4,1.8l-2.3-3.7c-3.6,4.9-6,11.3-6.9,18.7c-0.6,4.8,2.8,9.2,7.6,9.8
	c4.8,0.6,9.2-2.8,9.8-7.6c0.6-5.1,2.2-9.1,4.4-11.5L111.3,260.2z"/>
<g>
	<path class="st22" d="M208.9,244.8c-0.5,2.6-1.7,4.9-3.4,6.9C206,249.1,207.1,246.8,208.9,244.8L208.9,244.8z"/>
</g>
<g>
	<path class="st22" d="M217.2,249.2c0.1,2.5-0.6,4.8-1.8,6.9C215.3,253.6,215.9,251.3,217.2,249.2L217.2,249.2z"/>
</g>
<g>
	<path class="st22" d="M197.9,248.3c0,1.8-0.6,3.3-1.8,4.6C196,251.1,196.6,249.5,197.9,248.3L197.9,248.3z"/>
</g>
<g>
	<path class="st22" d="M190.1,243.5c-0.5,1.9-1.6,3.3-3.2,4.4C187.4,246,188.4,244.5,190.1,243.5L190.1,243.5z"/>
</g>
<g>
	<path class="st22" d="M206.6,257.7c0,2.3-0.6,4.5-1.8,6.4C204.7,261.8,205.3,259.6,206.6,257.7L206.6,257.7z"/>
</g>
<g>
	<path class="st22" d="M231.2,251.5c0.4,2.7,0.1,5.4-0.9,8C229.9,256.8,230.2,254.1,231.2,251.5L231.2,251.5z"/>
</g>
<g>
	<path class="st22" d="M189.1,177.1c-2.6-1.5-4.8-3.5-6.4-6C185.3,172.6,187.5,174.6,189.1,177.1L189.1,177.1z"/>
</g>
<g>
	<path class="st22" d="M197.4,180.5c-2.9-2-5.4-4.6-7.3-7.6C193,175,195.5,177.5,197.4,180.5L197.4,180.5z"/>
</g>
<g>
	<path class="st22" d="M187.1,181.9c-2-0.5-3.6-1.6-4.8-3.2C184.2,179.2,185.9,180.3,187.1,181.9L187.1,181.9z"/>
</g>
<g>
	<path class="st22" d="M180.2,185.1c-2.4,0.1-4.6-1-6.4-2.5C176.2,182.8,178.2,183.9,180.2,185.1L180.2,185.1z"/>
</g>
<g>
	<path class="st22" d="M173.1,193.6c-2,0.7-4,0.7-6,0C169.1,192.9,171.1,192.9,173.1,193.6L173.1,193.6z"/>
</g>
<g>
	<path class="st22" d="M265.6,165.4c0.2-2.2,1.1-4.3,2.5-6C267.9,161.7,267.1,163.7,265.6,165.4L265.6,165.4z"/>
</g>
<g>
	<path class="st22" d="M270.9,163.8c0.6-2.3,1.9-4.3,3.7-6C273.9,160.2,272.7,162.2,270.9,163.8L270.9,163.8z"/>
</g>
<g>
	<path class="st22" d="M276.4,167c1.3-2.3,3.2-4.2,5.5-5.5C280.6,163.8,278.7,165.6,276.4,167L276.4,167z"/>
</g>
<g>
	<path class="st22" d="M285.1,168.6c1.4-2.3,3.4-4.2,5.7-5.5C289.4,165.4,287.5,167.3,285.1,168.6L285.1,168.6z"/>
</g>
<g>
	<path class="st22" d="M294.5,171.6c0.7-1.6,1.8-2.8,3.4-3.4C297.3,169.8,296.2,170.9,294.5,171.6L294.5,171.6z"/>
</g>
<g>
	<path class="st22" d="M264.5,156.7c-0.4-2.3-0.1-4.5,0.9-6.7C265.8,152.3,265.4,154.5,264.5,156.7L264.5,156.7z"/>
</g>
<g>
	<path class="st22" d="M275,236.8c1.7,1.6,2.9,3.6,3.4,6C276.7,241.1,275.6,239.1,275,236.8L275,236.8z"/>
</g>
<g>
	<path class="st22" d="M268.4,242.5c1.3,1.3,2,3,2.1,4.8C269.1,246,268.4,244.4,268.4,242.5L268.4,242.5z"/>
</g>
<g>
	<path class="st22" d="M256,246.4c0.9,1.7,1.1,3.4,0.7,5.3C255.7,250.1,255.5,248.3,256,246.4L256,246.4z"/>
</g>
<g>
	<path class="st22" d="M246.3,252c0.7,2.5,0.7,5.1,0,7.6C245.6,257,245.6,254.5,246.3,252L246.3,252z"/>
</g>
<g>
	<path class="st22" d="M273,280.2c1.6,1.7,2.6,3.7,3,6C274.3,284.5,273.3,282.5,273,280.2L273,280.2z"/>
</g>
<g>
	<path class="st22" d="M277.8,292.6c1.3,1.7,2,3.6,2.1,5.7C278.5,296.7,277.8,294.7,277.8,292.6L277.8,292.6z"/>
</g>
<g>
	<path class="st22" d="M279.4,286.4c1.2,1.6,1.7,3.5,1.6,5.5C279.8,290.3,279.3,288.4,279.4,286.4L279.4,286.4z"/>
</g>
<g>
	<path class="st22" d="M217.2,292.4c0.2,1.9-0.3,3.6-1.4,5.1C215.6,295.6,216,293.9,217.2,292.4L217.2,292.4z"/>
</g>
<g>
	<path class="st22" d="M214.6,289.4c-0.2,3-1,5.9-2.5,8.5C212.3,294.9,213.1,292,214.6,289.4L214.6,289.4z"/>
</g>
<g>
	<path class="st22" d="M204.1,290.5c-0.1,2.2-0.9,4.2-2.3,6C201.9,294.3,202.7,292.3,204.1,290.5L204.1,290.5z"/>
</g>
<g>
	<path class="st22" d="M184.6,306.8c0.7,1.3,0.7,2.6,0,3.9C183.9,309.5,183.9,308.1,184.6,306.8L184.6,306.8z"/>
</g>
<g>
	<path class="st22" d="M191,308.4c0.8,1.9,1,3.9,0.5,6C190.6,312.5,190.5,310.5,191,308.4L191,308.4z"/>
</g>
<g>
	<path class="st22" d="M316.4,307.8c1.3,1.4,1.9,3.1,1.8,5.1C316.9,311.4,316.3,309.7,316.4,307.8L316.4,307.8z"/>
</g>
<g>
	<path class="st22" d="M322.8,306.4c1.7,0.9,3,2.3,3.7,4.1C324.7,309.6,323.5,308.2,322.8,306.4L322.8,306.4z"/>
</g>
<g>
	<path class="st22" d="M317.5,302c1.2,1.1,1.7,2.5,1.6,4.1C317.9,305,317.4,303.6,317.5,302L317.5,302z"/>
</g>
<g>
	<path class="st22" d="M308.8,307.5c0.8,1.5,1,3.2,0.5,4.8C308.4,310.8,308.3,309.2,308.8,307.5L308.8,307.5z"/>
</g>
<g>
	<path class="st22" d="M285.4,241.4c2.2,1.9,3.9,4.2,5.1,6.9C288.2,246.4,286.5,244.1,285.4,241.4L285.4,241.4z"/>
</g>
<g>
	<path class="st22" d="M284.2,232.4c2.5,1,4.6,2.5,6.2,4.6C287.9,236.1,285.9,234.5,284.2,232.4L284.2,232.4z"/>
</g>
<g>
	<path class="st22" d="M264,251.7c0.8,2.4,1,4.9,0.5,7.3C263.6,256.7,263.5,254.2,264,251.7L264,251.7z"/>
</g>
<g>
	<path class="st22" d="M223.6,258.2c0.5,2.3,0.4,4.6-0.5,6.9C222.6,262.7,222.8,260.4,223.6,258.2L223.6,258.2z"/>
</g>
<g>
	<path class="st22" d="M216.7,168.6c-1.8-2-2.9-4.3-3.4-6.9C215,163.7,216.2,166,216.7,168.6L216.7,168.6z"/>
</g>
<g>
	<path class="st22" d="M211.7,167.2c-1.6-2.6-2.6-5.4-3-8.5C210.3,161.3,211.3,164.2,211.7,167.2L211.7,167.2z"/>
</g>
<g>
	<path class="st22" d="M237.4,161.3c-1.1-2.6-1.6-5.4-1.4-8.3C237.1,155.6,237.6,158.4,237.4,161.3L237.4,161.3z"/>
</g>
<g>
	<path class="st22" d="M241.7,164.2c-0.9-2.1-1.1-4.2-0.7-6.4C242,159.9,242.2,162,241.7,164.2L241.7,164.2z"/>
</g>
</svg>
