<?xml version="1.0" encoding="utf-8"?>
<!-- Generator: Adobe Illustrator 27.5.0, SVG Export Plug-In . SVG Version: 6.00 Build 0)  -->
<svg version="1.1" id="Layer_1" xmlns="http://www.w3.org/2000/svg" xmlns:xlink="http://www.w3.org/1999/xlink" x="0px" y="0px"
	 viewBox="0 0 500 500" style="enable-background:new 0 0 500 500;" xml:space="preserve">
<style type="text/css">
	.st0{fill:#EBEBEB;}
	.st1{fill:#0E2C44;}
	.st2{fill:#455A64;}
	.st3{fill:#D9ED92;}
	.st4{fill:#FFFFFF;}
	.st5{fill:#52B69A;}
	.st6{opacity:0.3;}
	.st7{fill:#E0E0E0;}
	.st8{opacity:0.8;}
	.st9{opacity:0.6;}
	.st10{fill-rule:evenodd;clip-rule:evenodd;fill:#D9ED92;}
	.st11{fill-rule:evenodd;clip-rule:evenodd;fill:#455A64;}
	.st12{fill:#A8DB93;}
</style>
<g id="freepik--background-simple--inject-15">
	<path class="st0" d="M428.6,240.1l-1.9-3.1c-16.1-26.2-45.2-42-75.9-40.1c-3.9,0.2-7.9,0.8-11.7,1.6c-27.9,5.9-52.2,26.7-62.2,53.4
		c-5.9,15.7-7.6,33.8-18.8,46.2c-14.6,16.2-39.4,16.7-61.2,16s-46.6-0.1-61.2,16.2c-9.1,10.2-12,24.7-11.3,38.3
		c2,36.1,27.4,68.4,59.8,84.5s70.6,17.5,106.1,10.4c49.7-9.9,97-37.1,125.4-79S451.3,285.4,428.6,240.1z"/>
	<circle class="st0" cx="149.2" cy="153.4" r="60.3"/>
</g>
<path class="st1" d="M166.9,55.1l0.9-0.9c5.5-5.4,14.3-5.4,19.7,0.1l2.7,2.7c5.4,5.5,5.4,14.3-0.1,19.7l-0.9,0.9l0,0L166.9,55.1
	L166.9,55.1z"/>
<path class="st1" d="M189.2,77.6L189.2,77.6l-22.3-22.5l0,0l0.9-0.9c2.6-2.6,6.2-4.1,9.9-4.1h0.1c3.7,0,7.3,1.5,9.9,4.1l2.7,2.7
	c5.4,5.5,5.4,14.3-0.1,19.8L189.2,77.6z M166.9,55.1l22.3,22.4l0.9-0.9c5.5-5.4,5.5-14.2,0.1-19.7l-2.7-2.7
	c-2.6-2.6-6.1-4.1-9.8-4.1h-0.1c-3.7,0-7.2,1.4-9.8,4L166.9,55.1z"/>
<path class="st1" d="M121.8,143.6l-1,0.9c-5.7,5.2-14.5,4.9-19.7-0.8l-2.6-2.8c-5.2-5.7-4.9-14.5,0.8-19.8l0.9-0.9l0,0L121.8,143.6
	L121.8,143.6z"/>
<path class="st1" d="M111.4,148.2h-0.6c-3.7-0.1-7.2-1.8-9.7-4.5l-2.6-2.8c-5.2-5.7-4.9-14.5,0.8-19.8l1-0.9l0,0l21.5,23.3l0,0
	l-1,0.9C118.3,146.9,114.9,148.2,111.4,148.2z M99.4,121.2c-5.7,5.2-6.1,14-0.9,19.7c0,0,0,0,0.1,0.1l2.6,2.8c2.5,2.7,6,4.3,9.7,4.5
	h0.6c3.5,0,6.9-1.3,9.4-3.7l1-0.9l-21.4-23.2L99.4,121.2z"/>
<rect x="93.2" y="89.5" transform="matrix(0.6278 -0.7784 0.7784 0.6278 -42.5912 110.679)" class="st2" width="2.5" height="20.7"/>
<path class="st1" d="M88.2,88.3c2.2,1.8,2.5,5,0.8,7.2c-1.8,2.2-5,2.5-7.2,0.8c-2.2-1.8-2.5-5-0.8-7.2c0,0,0,0,0,0
	C82.8,86.9,86,86.5,88.2,88.3z"/>
<path class="st3" d="M102.2,105.1l47-46.6c6.5-6.4,16.9-6.4,23.3,0.1L202,88.2c6.4,6.5,6.4,16.9-0.1,23.3l-47,46.6
	c-6.5,6.4-16.9,6.4-23.3-0.1l-29.5-29.7C95.7,122,95.8,111.5,102.2,105.1z"/>
<polygon class="st2" points="150.5,57.2 148.3,48.8 142.5,49.7 140.9,43.6 142.8,43.2 144.1,47.6 149.8,46.8 152.2,55.5 "/>
<path class="st1" d="M113.3,109.9l40.6-40.3c5.5-5.4,14.3-5.4,19.7,0.1l1.9,1.9c5.4,5.5,5.4,14.3-0.1,19.7l-40.6,40.3
	c-5.5,5.4-14.3,5.4-19.7-0.1l-1.9-1.9C107.8,124.1,107.8,115.3,113.3,109.9z"/>
<path class="st1" d="M177.7,95c0,0,0.1-0.2,0.4-0.4c0.4-0.4,0.8-0.9,1.1-1.3c1.4-1.7,2.3-3.7,2.9-5.9c0.4-1.5,0.6-3.1,0.7-4.7
	c0-1.9-0.3-3.8-0.9-5.6c-0.7-2.1-1.7-4-3.1-5.7l-1.2-1.3l-1.3-1.3c-0.9-0.9-1.8-1.7-2.8-2.5c-2.1-1.6-4.6-2.8-7.2-3.3
	c-2.9-0.5-5.8-0.4-8.6,0.5c-1.5,0.5-2.8,1.1-4.1,1.9c-1.3,0.9-2.5,1.9-3.6,3l-7.1,7l-31.4,31.2c-2.7,2.7-4.5,6.3-5,10.1
	c-0.2,1.9-0.2,3.7,0.2,5.6c0.6,2.7,1.7,5.2,3.4,7.4c0.6,0.7,1.2,1.4,1.8,2c1.2,1.3,2.5,2.5,3.9,3.6c5.6,4,13.1,4.4,19,0.9
	c0.7-0.4,1.4-0.8,2-1.3c0.6-0.5,1.2-1,1.7-1.6l3.3-3.2l12-11.8l17.4-17.1l4.7-4.6l1.2-1.2C177.5,95.1,177.7,95,177.7,95
	c0,0-0.1,0.1-0.4,0.4l-1.2,1.2l-4.7,4.7l-17.3,17.2l-11.9,11.9l-3.3,3.3c-0.6,0.6-1.2,1.1-1.8,1.6c-0.6,0.5-1.3,1-2,1.4
	c-6.1,3.6-13.8,3.3-19.5-0.9c-1.4-1.1-2.8-2.3-4-3.7c-0.7-0.6-1.3-1.3-1.9-2c-0.6-0.7-1.1-1.5-1.6-2.3c-0.9-1.6-1.6-3.4-2-5.3
	c-0.4-1.9-0.4-3.8-0.2-5.8c0.5-3.9,2.3-7.6,5.1-10.4l31.5-31.2l7.1-7c1.1-1.2,2.4-2.2,3.7-3.1c6.3-4,14.4-3.6,20.4,0.9
	c1,0.8,1.9,1.6,2.8,2.6l1.3,1.3l1.2,1.3c1.4,1.7,2.4,3.7,3.1,5.8c0.6,1.8,0.9,3.7,0.9,5.7c0,1.6-0.3,3.2-0.7,4.8
	c-0.6,2.1-1.6,4.1-3,5.9c-0.4,0.5-0.7,0.9-1.1,1.3L177.7,95z"/>
<path class="st4" d="M125.8,126.4c-0.3-3-0.4-6-0.4-9c-0.1-3-0.1-6,0.1-9c0.3,3,0.4,6,0.4,9C126,120.4,126,123.4,125.8,126.4z"/>
<path class="st4" d="M134.5,116.7c-3,0.4-6,0.6-9,0.7c-3,0.2-6,0.3-9,0.2c3-0.4,6-0.6,9-0.7C128.5,116.7,131.5,116.6,134.5,116.7z"
	/>
<path class="st4" d="M161.4,90.1c-0.3-3-0.4-6-0.4-9c-0.1-3-0.1-6,0.1-9c0.3,3,0.4,6,0.4,9C161.7,84.1,161.6,87.1,161.4,90.1z"/>
<path class="st4" d="M170.1,80.4c-3,0.4-6,0.6-9,0.7c-3,0.2-6,0.3-9,0.1c3-0.4,6-0.6,9-0.7C164.1,80.3,167.1,80.3,170.1,80.4z"/>
<circle class="st1" cx="140.6" cy="40" r="5.1"/>
<path class="st1" d="M156.5,156.7c-0.3-0.2-0.6-0.5-0.9-0.7c-0.6-0.5-1.3-1.2-2.3-2.1c-1.9-1.8-4.5-4.3-7.3-7.1s-5.4-5.4-7.2-7.3
	c-1-1-2-2-2.8-3.2c0.3,0.2,0.6,0.5,0.8,0.8l2.2,2.1c2,1.9,4.5,4.4,7.3,7.2s5.4,5.4,7.2,7.2l2.1,2.2
	C156.1,156.1,156.3,156.4,156.5,156.7z"/>
<path class="st1" d="M199.8,113.1c-0.3-0.2-0.6-0.5-0.9-0.7c-0.5-0.5-1.3-1.2-2.3-2.1c-1.9-1.8-4.5-4.3-7.3-7.1s-5.4-5.4-7.2-7.3
	c-1-1-2-2-2.8-3.2c0.3,0.2,0.6,0.5,0.8,0.8l2.2,2.2l7.3,7.2c2.8,2.8,5.4,5.4,7.2,7.2l2.1,2.2C199.4,112.4,199.6,112.7,199.8,113.1z"
	/>
<rect x="136.8" y="116.6" transform="matrix(0.7014 -0.7128 0.7128 0.7014 -36.5028 151.7556)" class="st1" width="52.2" height="5.7"/>
<path class="st1" d="M137.6,142.8c0,0.6-0.5,1.1-1.1,1.1c-0.6,0-1.1-0.5-1.1-1.1c0-0.6,0.5-1.1,1.1-1.1c0,0,0,0,0.1,0
	C137.2,141.7,137.6,142.2,137.6,142.8z"/>
<path class="st1" d="M145.9,151.6c-0.1,0.6-0.6,1-1.2,1c-0.5-0.1-0.9-0.5-1-1c0.1-0.6,0.6-1,1.2-1
	C145.5,150.7,145.9,151.1,145.9,151.6z"/>
<path class="st1" d="M186.6,92.9c-0.1,0.6-0.6,1-1.1,1c-0.6,0-1.1-0.4-1.1-1c0-0.6,0.4-1.1,1-1.1c0.1,0,0.1,0,0.2,0
	C186.2,91.7,186.6,92.2,186.6,92.9C186.6,92.9,186.6,92.9,186.6,92.9z"/>
<path class="st1" d="M195,101.7c0,0.6-0.5,1.1-1.1,1s-1.1-0.5-1-1.1l0,0c0-0.6,0.5-1.1,1.1-1S195,101.1,195,101.7z"/>
<path class="st4" d="M105.4,144c-0.7-0.7-1.5-1.4-2.3-2.1c-0.8-0.6-1.7-1.2-2.7-2.1c-1.1-0.9-1.9-2.1-2.5-3.3
	c-1.1-2.3-1.4-5-0.8-7.5c0.2-0.7,0.5-1.5,0.8-2.2c0.3-0.5,0.4-0.7,0.5-0.7c-0.4,1-0.7,1.9-0.9,2.9c-0.5,2.4-0.2,4.9,0.9,7.2
	c1.2,2.7,3.5,4.1,5,5.4C104.3,142.3,105,143.1,105.4,144z"/>
<path class="st4" d="M148.9,63.5c0.1,0.1-10.4,10.5-23.5,23.2s-23.8,22.9-23.8,22.8S112,99,125.1,86.3S148.8,63.4,148.9,63.5z"/>
<path class="st4" d="M83.9,95.9c0,0.1-0.5,0-1.2-0.4c-1.9-1.2-2.4-3.7-1.2-5.6c0.4-0.7,0.9-0.9,0.9-0.9s-0.3,0.4-0.6,1.1
	c-0.4,0.9-0.5,1.8-0.4,2.8c0.2,0.9,0.8,1.8,1.5,2.4C83.5,95.6,84,95.8,83.9,95.9z"/>
<path class="st4" d="M139.5,43.7c0,0.1-0.6,0-1.3-0.5c-1.9-1.3-2.3-3.9-0.9-5.8c0-0.1,0.1-0.1,0.1-0.2c0.6-0.7,1.1-0.9,1.1-0.8
	s-0.4,0.4-0.8,1c-1.2,1.8-0.9,4.2,0.7,5.5C139,43.4,139.5,43.6,139.5,43.7z"/>
<path class="st4" d="M177.3,51.7c-1.4,0.2-2.8,0.5-4.1,0.9c-1.3,0.6-2.5,1.3-3.6,2.1c0.8-1.2,2-2.2,3.4-2.6
	C174.3,51.5,175.9,51.4,177.3,51.7z"/>
<path class="st4" d="M135.8,158.5c-2.6-2.3-5.1-4.8-7.5-7.4c-4-4.2-7.2-7.6-7.1-7.7s3.4,3.2,7.5,7.4S135.9,158.4,135.8,158.5z"/>
<rect x="208.4" y="398.6" class="st5" width="42.8" height="60.6"/>
<path class="st1" d="M208.8,458.2h42.1c3.1,0,5.7,2.6,5.7,5.7v0v0.5l0,0h-53.6l0,0v-0.5C203.1,460.8,205.6,458.2,208.8,458.2
	C208.8,458.2,208.8,458.2,208.8,458.2z"/>
<rect x="198.2" y="464.5" class="st3" width="65" height="9.9"/>
<path class="st1" d="M251,452.6c0,0.1-9.5,0.3-21.2,0.3s-21.2-0.1-21.2-0.3s9.5-0.3,21.2-0.3S251,452.5,251,452.6z"/>
<path class="st1" d="M251,445.4c0,0.1-9.5,0.3-21.2,0.3s-21.2-0.1-21.2-0.3s9.5-0.3,21.2-0.3S251,445.2,251,445.4z"/>
<path class="st1" d="M251,438.3c0,0.1-9.5,0.3-21.2,0.3s-21.2-0.1-21.2-0.3s9.5-0.3,21.2-0.3S251,438.2,251,438.3z"/>
<path class="st1" d="M251,431.1c0,0.1-9.5,0.3-21.2,0.3s-21.2-0.1-21.2-0.3s9.5-0.3,21.2-0.3S251,431,251,431.1z"/>
<path class="st1" d="M251,424c0,0.1-9.5,0.3-21.2,0.3s-21.2-0.1-21.2-0.3s9.5-0.3,21.2-0.3S251,423.9,251,424z"/>
<path class="st1" d="M251,416.8c0,0.1-9.5,0.3-21.2,0.3s-21.2-0.1-21.2-0.3s9.5-0.3,21.2-0.3S251,416.7,251,416.8z"/>
<path class="st1" d="M251,409.7c0,0.1-9.5,0.3-21.2,0.3s-21.2-0.1-21.2-0.3s9.5-0.3,21.2-0.3S251,409.6,251,409.7z"/>
<path class="st1" d="M251,402.5c0,0.1-9.5,0.3-21.2,0.3s-21.2-0.1-21.2-0.3s9.5-0.3,21.2-0.3S251,402.4,251,402.5z"/>
<g class="st6">
	<polygon points="208.4,407.1 251,405.9 251,399.7 208.1,399.7 	"/>
</g>
<rect x="275.5" y="398.6" class="st5" width="42.8" height="60.6"/>
<path class="st1" d="M275.8,458.2h42.1c3.1,0,5.7,2.6,5.7,5.7v0v0.5l0,0h-53.6l0,0v-0.5C270.1,460.8,272.6,458.2,275.8,458.2
	C275.8,458.2,275.8,458.2,275.8,458.2z"/>
<rect x="265.2" y="464.5" class="st3" width="65" height="9.9"/>
<path class="st1" d="M318,452.6c0,0.1-9.5,0.3-21.2,0.3s-21.2-0.1-21.2-0.3s9.5-0.3,21.2-0.3S318,452.5,318,452.6z"/>
<path class="st1" d="M318,445.4c0,0.1-9.5,0.3-21.2,0.3s-21.2-0.1-21.2-0.3s9.5-0.3,21.2-0.3S318,445.2,318,445.4z"/>
<path class="st1" d="M318,438.3c0,0.1-9.5,0.3-21.2,0.3s-21.2-0.1-21.2-0.3s9.5-0.3,21.2-0.3S318,438.2,318,438.3z"/>
<path class="st1" d="M318,431.1c0,0.1-9.5,0.3-21.2,0.3s-21.2-0.1-21.2-0.3s9.5-0.3,21.2-0.3S318,431,318,431.1z"/>
<path class="st1" d="M318,424c0,0.1-9.5,0.3-21.2,0.3s-21.2-0.1-21.2-0.3s9.5-0.3,21.2-0.3S318,423.9,318,424z"/>
<path class="st1" d="M318,416.8c0,0.1-9.5,0.3-21.2,0.3s-21.2-0.1-21.2-0.3s9.5-0.3,21.2-0.3S318,416.7,318,416.8z"/>
<path class="st1" d="M318,409.7c0,0.1-9.5,0.3-21.2,0.3s-21.2-0.1-21.2-0.3s9.5-0.3,21.2-0.3S318,409.6,318,409.7z"/>
<path class="st1" d="M318,402.5c0,0.1-9.5,0.3-21.2,0.3s-21.2-0.1-21.2-0.3s9.5-0.3,21.2-0.3S318,402.4,318,402.5z"/>
<g class="st6">
	<polygon points="275.5,407.1 318,405.9 318,399.7 275.1,399.7 	"/>
</g>
<path class="st3" d="M320.3,233.1l1.1-4.2c0.2-1,1.2-1.6,2.2-1.3l17.1,4.3l0,0l-2,7.8l0,0l-17.1-4.3
	C320.7,235.1,320.1,234.1,320.3,233.1L320.3,233.1z"/>
<g class="st6">
	<path d="M320.3,233.1l1.1-4.2c0.2-1,1.2-1.6,2.2-1.3l17.1,4.3l0,0l-2,7.8l0,0l-17.1-4.3C320.7,235.1,320.1,234.1,320.3,233.1
		L320.3,233.1z"/>
</g>
<path class="st3" d="M316.6,247.9l1.5-5.8c0.4-1.6,2-2.6,3.6-2.2l16,4l0,0l-2.9,11.6l0,0l-15.9-4
	C317.2,251.3,316.2,249.7,316.6,247.9C316.6,248,316.6,248,316.6,247.9z"/>
<rect x="324.4" y="237" transform="matrix(0.2448 -0.9696 0.9696 0.2448 19.1088 506.2703)" class="st3" width="20.4" height="7.7"/>
<path class="st5" d="M345.7,310.4c0,0,32-1.3,29.3-31.9c-2-23.4-36.9-23.7-36.9-23.7l8.9-19.5c0,0,40.8,3.6,48.8,33.2
	c9.1,33.5-11.9,60.9-50.1,60.2V310.4z"/>
<rect x="326.7" y="238.5" transform="matrix(0.2158 -0.9764 0.9764 0.2158 28.0745 524.4929)" class="st1" width="27.7" height="12.4"/>
<path class="st2" d="M344.2,256.8c0,0.2-2.8-0.2-6-1c-2-0.4-4-0.9-5.9-1.6c2,0.2,4,0.6,6,1.1c1.6,0.4,3.1,0.7,4.2,1l1.3,0.3
	C343.8,256.6,344,256.7,344.2,256.8z"/>
<path class="st2" d="M345.2,251.9c0,0.2-2.8-0.2-6-1c-2-0.4-4-0.9-5.9-1.6c2,0.2,4,0.6,6,1.1c1.6,0.4,3.1,0.7,4.2,1l1.3,0.3
	C344.9,251.8,345.1,251.8,345.2,251.9z"/>
<path class="st2" d="M346.5,247c0,0.2-2.8-0.2-6-1c-2-0.4-4-0.9-5.9-1.6c2,0.2,4,0.6,6,1.1c1.6,0.4,3.1,0.7,4.2,1l1.3,0.3L346.5,247
	z"/>
<path class="st2" d="M347.4,242.2c0,0.2-2.8-0.2-6-1c-2-0.4-4-0.9-5.9-1.6c2,0.2,4,0.6,6,1.1c1.6,0.4,3.1,0.7,4.2,1l1.3,0.3
	C347.1,242,347.2,242.1,347.4,242.2z"/>
<path class="st2" d="M348.6,237.6c0,0.2-2.8-0.2-6-1c-2-0.4-4-0.9-5.9-1.6c2,0.2,4,0.6,6,1.1c1.6,0.4,3.1,0.7,4.2,1l1.3,0.3
	C348.3,237.5,348.5,237.6,348.6,237.6z"/>
<path class="st1" d="M352.7,328.6c-0.3-0.9-0.5-1.8-0.6-2.7c-0.3-1.7-0.7-4-1-6.6s-0.5-5-0.5-6.7c-0.1-0.9-0.1-1.9,0-2.8
	c0.2,0.9,0.3,1.8,0.3,2.8c0.1,1.7,0.4,4,0.7,6.6s0.6,4.9,0.8,6.6C352.5,326.8,352.6,327.7,352.7,328.6z"/>
<path class="st1" d="M362.6,327.1c-1.1-3.1-2.1-6.3-2.9-9.5c-1-3.2-1.8-6.4-2.4-9.7c1.1,3.1,2.1,6.3,2.9,9.5
	C361.1,320.6,362,323.8,362.6,327.1z"/>
<path class="st1" d="M375.9,322.3c-0.6-0.8-1.2-1.7-1.7-2.6c-1.1-1.8-2.4-4-3.9-6.5l-3.9-6.5c-0.6-0.9-1.1-1.8-1.5-2.8
	c0.7,0.8,1.3,1.6,1.9,2.5c1.1,1.6,2.5,3.9,4,6.4s2.9,4.9,3.8,6.6C375.1,320.4,375.5,321.3,375.9,322.3z"/>
<path class="st1" d="M387.2,313.3c-0.1,0.1-4.1-3-8.9-7s-8.6-7.3-8.5-7.4s4.1,3,8.9,7S387.3,313.2,387.2,313.3z"/>
<path class="st1" d="M394.4,301c-0.1,0.1-4.8-1.7-10.5-4.1s-10.4-4.4-10.3-4.6s4.8,1.7,10.5,4.1S394.5,300.8,394.4,301z"/>
<path class="st1" d="M397.9,287.6c-1.1,0-2.3-0.1-3.4-0.3l-8.1-1l-8.1-1c-1.1-0.1-2.2-0.2-3.3-0.5c1.1,0,2.3,0,3.4,0.1
	c2.1,0.2,5,0.4,8.1,0.8s6,0.8,8.1,1.1C395.8,287.1,396.9,287.3,397.9,287.6z"/>
<path class="st1" d="M396.3,273.8c-1,0.4-2,0.8-3,1c-1.9,0.5-4.5,1.2-7.5,1.9s-5.6,1.1-7.6,1.3c-1,0.2-2.1,0.3-3.2,0.3
	c1-0.3,2.1-0.5,3.1-0.6c1.9-0.4,4.6-0.8,7.5-1.5s5.6-1.2,7.5-1.7C394.2,274.2,395.2,273.9,396.3,273.8z"/>
<path class="st1" d="M392.3,260.5c0.1,0.1-4.2,2.4-9.6,5.1s-9.7,4.8-9.8,4.6s4.2-2.4,9.6-5.1S392.2,260.4,392.3,260.5z"/>
<path class="st1" d="M384,249.8c0.1,0.1-3.5,3.3-8,7.2s-8.2,6.9-8.3,6.8s3.5-3.3,8-7.2S383.9,249.7,384,249.8z"/>
<path class="st1" d="M370.1,241.8c0.1,0.1-2.1,4-5,8.8c-1.7,3-3.5,5.8-5.5,8.6c-0.1-0.1,2.1-4,5-8.8
	C366.3,247.4,368.2,244.6,370.1,241.8z"/>
<path class="st1" d="M357.7,236.8c-0.8,3.3-1.8,6.6-3,9.9c-1.8,5.4-3.3,9.7-3.5,9.7c0.8-3.3,1.8-6.6,3-9.9
	C355.2,243.2,356.4,240,357.7,236.8z"/>
<g class="st6">
	<path d="M372.7,294.2c-2.4,5.2-6.5,9.4-11.6,11.9c-2.5,1.3-5.1,2.3-7.8,3.1c6.1,3.3,14.1,1.3,19.4-3.1s8.2-11.4,8.4-18.3
		c0.2-3.3-0.4-6.6-1.7-9.6c-1.4-3-3.6-6.1-6.6-7.5c0.9,1.6,1.5,3.4,1.9,5.2C375.9,282,375.2,288.4,372.7,294.2z"/>
</g>
<path class="st1" d="M137.8,348.1c0.4,0.3,0.7,0.7,1,1.1c0.6,0.7,1.5,1.8,2.5,3.2c2.6,3.6,4.8,7.5,6.6,11.6
	c1.8,4.1,3.3,8.3,4.3,12.6c0.4,1.7,0.6,3,0.8,4c0.1,0.5,0.2,1,0.2,1.5c-0.2-0.5-0.3-0.9-0.4-1.4c-0.2-0.9-0.5-2.3-0.9-3.9
	c-1.1-4.3-2.6-8.5-4.4-12.5c-1.8-4-4-7.9-6.4-11.6c-0.9-1.4-1.7-2.5-2.3-3.3C138.4,349,138.1,348.6,137.8,348.1z"/>
<path class="st1" d="M133.6,344.6c0.1-0.1,0.6,0.1,1.1,0.6s0.8,0.9,0.7,1s-0.6-0.1-1.1-0.6S133.5,344.7,133.6,344.6z"/>
<path class="st1" d="M134.6,341.6c0.1-0.1,0.6,0.5,1.1,1.3s0.8,1.5,0.7,1.6s-0.6-0.5-1.1-1.3S134.4,341.7,134.6,341.6z"/>
<path class="st2" d="M153.1,382.7c0-0.3,0.1-0.5,0.1-0.8c0.1-0.6,0.3-1.3,0.5-2.3c0.5-2,1.1-4.8,1.9-8.4c1.5-7.1,3.4-17,4.8-28
	c0.7-5.5,1-10.8,2.3-15.5c0.6-2.2,1.5-4.3,2.7-6.3c2.7-4.2,6.9-7.1,11.7-8.2c0.8-0.2,1.5-0.3,2.3-0.4c0.3,0,0.5,0,0.8,0
	c-0.3,0.1-0.5,0.1-0.8,0.1c-0.8,0.1-1.5,0.3-2.3,0.4c-2.8,0.7-5.3,2-7.5,3.9c-1.5,1.3-2.8,2.7-3.9,4.4c-1.2,1.9-2,4-2.6,6.2
	c-1.2,4.6-1.5,9.9-2.2,15.4c-1.4,11-3.3,20.9-4.9,28c-0.8,3.5-1.6,6.4-2.1,8.4c-0.3,0.9-0.5,1.7-0.6,2.2
	C153.3,382.2,153.2,382.5,153.1,382.7z"/>
<path class="st1" d="M154.2,303.4c0.7,1.4,1.5,2.6,2.6,3.7c2.6,2.6,6,4.2,9.6,4.7c3.6,0.4,7.3,0.2,10.9-0.5l3.3-0.6
	c0.4-0.1,0.8-0.1,1.2-0.2c-0.4,0.2-0.8,0.3-1.2,0.4c-0.8,0.2-1.9,0.5-3.3,0.7c-3.6,0.8-7.3,1-11,0.6c-3.7-0.5-7.2-2.2-9.8-4.9
	c-0.8-0.8-1.4-1.8-1.9-2.8C154.5,304.2,154.3,303.8,154.2,303.4z"/>
<path class="st1" d="M150.4,300.3c0.1-0.1,0.6,0.2,1.1,0.7s0.8,1,0.7,1.1s-0.6-0.2-1.1-0.7S150.4,300.4,150.4,300.3z"/>
<path class="st1" d="M151.6,298.5c0.1-0.1,0.6,0.4,1,1.1s0.7,1.3,0.6,1.4s-0.6-0.4-1-1.1S151.5,298.6,151.6,298.5z"/>
<path class="st1" d="M154.7,298.3c0.1,0,0.2,0.6,0.1,1.3s-0.3,1.2-0.5,1.2s-0.2-0.6-0.1-1.3S154.6,298.3,154.7,298.3z"/>
<path class="st2" d="M164.1,337.3c0,0.6,0,1.2-0.1,1.8c-0.1,1.1-0.3,2.8-0.5,4.8c-0.5,4.1-1.3,9.7-2.6,15.8s-2.7,11.6-3.8,15.6
	c-0.6,2-1.1,3.5-1.4,4.6c-0.2,0.6-0.4,1.1-0.6,1.7c0.1-0.6,0.2-1.2,0.4-1.7c0.3-1.2,0.8-2.8,1.3-4.7c1.1-4,2.4-9.4,3.7-15.6
	s2.1-11.7,2.7-15.8c0.3-2,0.5-3.6,0.6-4.8C163.9,338.5,164,337.9,164.1,337.3z"/>
<path class="st2" d="M181.9,314.2c0,0.1-1.4,0.1-3.6,0.7c-5.9,1.5-10.6,5.9-12.5,11.6c-0.8,2.1-0.9,3.6-1,3.6c-0.1-0.3-0.1-0.7,0-1
	c0.1-0.9,0.3-1.8,0.6-2.7c1.8-5.9,6.7-10.5,12.8-11.8c0.9-0.2,1.8-0.3,2.7-0.4C181.1,314.1,181.5,314.1,181.9,314.2z"/>
<path class="st2" d="M157.8,382.5c0-0.2,0-0.5,0-0.8c0-0.5,0.1-1.2,0.2-2.1c0.3-2.7,1.1-5.2,2.4-7.6c0.8-1.5,2-2.9,2.9-4.6
	c0.5-0.9,0.8-1.8,1-2.8c0.2-1,0.2-2.1,0.1-3.2c-0.2-2.2-0.8-4.5-0.3-7c0.3-1.2,0.8-2.4,1.6-3.4c0.7-1,1.6-2,2.2-3
	c0.7-1,1.1-2.2,1.1-3.4c0-1.2-0.2-2.4-0.5-3.6c-0.6-2.3-0.8-4.7-0.6-7c0.6-6.7,4.6-12.7,10.5-15.9c0.6-0.3,1.3-0.6,2-0.9
	c0.2-0.1,0.5-0.2,0.7-0.2c-0.2,0.1-0.4,0.2-0.7,0.3c-0.4,0.2-1.1,0.5-1.9,1c-2.3,1.3-4.3,3-5.9,5.1c-2.4,3.1-3.9,6.8-4.2,10.7
	c-0.2,2.3,0,4.6,0.6,6.8c0.3,1.2,0.5,2.4,0.5,3.7c0,1.3-0.5,2.6-1.2,3.7c-0.7,1.1-1.6,2-2.3,3c-0.7,0.9-1.3,2-1.5,3.2
	c-0.5,2.3,0.1,4.6,0.3,6.8c0.1,1.1,0.1,2.2-0.1,3.3c-0.2,1-0.6,2-1.1,2.9c-1,1.7-2.2,3.2-3,4.6c-1.3,2.3-2.1,4.8-2.5,7.4
	c-0.1,0.9-0.3,1.6-0.4,2.1C157.9,382,157.9,382.3,157.8,382.5z"/>
<path class="st7" d="M183,324.5c-0.8,0-1.7,0.1-2.5,0.4c-2.2,0.7-4,2.2-5.2,4.1c-1.6,2.4-2.3,5.8-2.7,9.6c-0.4,4.2-1,8.3-1.8,12.4
	c-1.6,7.4-3.6,14.7-6,21.8c-0.9,2.8-1.6,5-2.2,6.5c-0.2,0.7-0.5,1.3-0.6,1.8c-0.1,0.2-0.1,0.4-0.3,0.6c0-0.2,0.1-0.4,0.2-0.7
	c0.1-0.5,0.3-1,0.5-1.8l2-6.5c1.7-5.5,4-13.2,5.8-21.8c0.9-4.3,1.5-8.5,1.9-12.3s1.2-7.3,2.9-9.7c1.3-2,3.2-3.4,5.4-4.1
	c0.6-0.2,1.2-0.2,1.9-0.2C182.6,324.5,182.8,324.5,183,324.5z"/>
<path class="st5" d="M146.3,378.9h19.4c0,0-11.8,93.3-76.6,93l0.8-18.2C89.9,453.7,134,451,146.3,378.9z"/>
<path class="st3" d="M63.1,454.3l0.1-4.3c0-1,0.9-1.8,1.9-1.8l17.6,0.3l0,0l-0.1,8l0,0l-17.6-0.3C63.9,456.2,63,455.4,63.1,454.3
	C63.1,454.3,63.1,454.3,63.1,454.3z"/>
<g class="st6">
	<path d="M63.1,454.3l0.1-4.3c0-1,0.9-1.8,1.9-1.8l17.6,0.3l0,0l-0.1,8l0,0l-17.6-0.3C63.9,456.2,63,455.4,63.1,454.3
		C63.1,454.3,63.1,454.3,63.1,454.3z"/>
</g>
<path class="st3" d="M63,470.7l0.1-5.9c0-1.7,1.4-3,3.1-2.9l16.5,0.3l0,0l-0.2,12l0,0L66,473.8c-1.7,0-3-1.3-3-3
	C63,470.8,63,470.7,63,470.7z"/>
<rect x="68.5" y="454.8" transform="matrix(1.762695e-02 -0.9998 0.9998 1.762695e-02 -381.2809 529.1798)" class="st3" width="20.4" height="7.7"/>
<rect x="79.2" y="447.2" transform="matrix(0.9999 -1.221700e-02 1.221700e-02 0.9999 -5.6262 1.0777)" class="st1" width="12.4" height="27.7"/>
<path class="st2" d="M91.6,471.9c0,0.2-2.7,0.4-6.1,0.4c-2,0.1-4.1,0-6.1-0.3c2-0.3,4.1-0.3,6.1-0.3c1.7,0,3.2,0,4.3,0h1.3
	C91.3,471.8,91.5,471.8,91.6,471.9z"/>
<path class="st2" d="M91.6,466.9c0,0.2-2.7,0.4-6.1,0.4c-2,0.1-4.1,0-6.1-0.2c2-0.3,4.1-0.3,6.1-0.3c1.7,0,3.2,0,4.3,0h1.3
	C91.3,466.8,91.4,466.9,91.6,466.9z"/>
<path class="st2" d="M91.7,461.9c0,0.2-2.7,0.4-6.1,0.4c-2,0.1-4.1,0-6.1-0.2c2-0.3,4.1-0.3,6.1-0.3c1.7,0,3.2,0,4.3,0h1.3
	C91.4,461.8,91.6,461.8,91.7,461.9z"/>
<path class="st2" d="M91.5,457c0,0.2-2.7,0.4-6.1,0.4c-2,0.1-4.1,0-6.1-0.3c2-0.3,4.1-0.3,6.1-0.3c1.7,0,3.2,0,4.3,0H91
	C91.1,456.9,91.3,456.9,91.5,457z"/>
<path class="st2" d="M91.6,452.2c0,0.2-2.7,0.4-6.1,0.4c-2,0.1-4.1,0-6.1-0.2c2-0.3,4.1-0.4,6.1-0.3c1.7,0,3.2,0,4.3,0h1.3
	C91.3,452.1,91.5,452.2,91.6,452.2z"/>
<path class="st1" d="M98.4,471c0,0,0,0.2,0.1,0.5v0.6l-0.2-0.6c-0.8-3-1.4-6.1-1.9-9.2c-0.4-2.7-0.7-5.1-0.9-6.9
	c-0.1-1-0.2-1.9-0.1-2.9c0.2,0.9,0.4,1.9,0.5,2.9c0.2,1.8,0.6,4.2,1,6.9c0.7,4.3,1.4,8,1.6,9.2h-0.2C98.4,471.1,98.4,471,98.4,471z"
	/>
<path class="st1" d="M107.6,469.2c-1.2-3.1-2.3-6.2-3.2-9.4c-1.1-3.1-2-6.3-2.7-9.6c1.2,3.1,2.3,6.2,3.2,9.4
	C106,462.8,106.9,466,107.6,469.2z"/>
<path class="st1" d="M118.5,464.6c-1.7-2.9-3.3-6-4.8-9.1c-2.5-5.1-4.4-9.2-4.3-9.3c1.7,2.9,3.3,6,4.8,9.1
	C116.7,460.4,118.6,464.6,118.5,464.6z"/>
<path class="st1" d="M128.1,457.4c-2.2-2.5-4.3-5.2-6.2-7.9c-2.1-2.6-4-5.4-5.8-8.2c2.2,2.5,4.3,5.2,6.2,7.9
	C125.7,453.7,128.2,457.3,128.1,457.4z"/>
<path class="st1" d="M136.6,449.4c-2.5-2.2-4.9-4.4-7.2-6.9c-2.4-2.3-4.7-4.7-6.8-7.2c2.5,2.2,4.9,4.4,7.2,6.9
	C132.1,444.5,134.4,446.9,136.6,449.4z"/>
<path class="st1" d="M143.5,439.9c-0.9-0.4-1.7-0.8-2.5-1.3l-5.9-3.5l-5.9-3.5c-0.8-0.4-1.7-0.9-2.4-1.5c0.9,0.3,1.8,0.7,2.6,1.2
	c1.6,0.8,3.7,2,6,3.3s4.4,2.6,5.8,3.6C142,438.7,142.8,439.2,143.5,439.9z"/>
<path class="st1" d="M148.2,430.2c-0.8-0.3-1.7-0.6-2.4-1.1c-1.5-0.7-3.5-1.7-5.8-2.8s-4.3-2-5.8-2.6c-0.8-0.3-1.6-0.7-2.4-1.1
	c0.9,0.2,1.7,0.4,2.5,0.8c1.5,0.6,3.6,1.4,5.9,2.5s4.3,2.1,5.7,2.9C146.7,429.1,147.5,429.6,148.2,430.2z"/>
<path class="st1" d="M153.8,420.8c-0.9-0.1-1.9-0.2-2.8-0.5c-1.7-0.4-4-0.9-6.6-1.7s-4.8-1.5-6.4-2.1c-0.9-0.3-1.8-0.6-2.6-1.1
	c0.9,0.2,1.8,0.4,2.7,0.7c1.6,0.5,3.9,1.2,6.5,2s4.8,1.4,6.5,1.8C152,420.2,152.9,420.4,153.8,420.8z"/>
<path class="st1" d="M156.8,411.3c-3.1-0.1-6.2-0.4-9.2-0.9c-3.1-0.3-6.1-0.8-9.2-1.4c3.1,0.1,6.2,0.4,9.2,0.9
	C150.7,410.2,153.7,410.7,156.8,411.3z"/>
<path class="st1" d="M159.9,402.1c-0.9,0.1-1.8,0-2.7-0.1c-1.7-0.1-3.9-0.3-6.5-0.6s-4.8-0.5-6.4-0.7c-0.9-0.1-1.8-0.2-2.7-0.5
	c0.9-0.1,1.8,0,2.7,0.1c1.7,0.1,3.9,0.3,6.5,0.6s4.8,0.5,6.4,0.7C158.2,401.7,159.1,401.8,159.9,402.1z"/>
<path class="st1" d="M162.4,393.1c-3.2,0.4-6.4,0.5-9.6,0.6c-3.2,0.2-6.4,0.2-9.6,0c3.2-0.4,6.4-0.5,9.6-0.6
	C156,392.9,159.2,392.9,162.4,393.1z"/>
<path class="st1" d="M163.4,385.8c-0.9,0.2-1.7,0.4-2.6,0.4c-1.6,0.2-3.9,0.3-6.4,0.3s-4.8-0.1-6.4-0.3c-0.9,0-1.8-0.2-2.6-0.4
	c0.9-0.1,1.8-0.1,2.7,0c1.6,0.1,3.9,0.1,6.4,0.1s4.8-0.1,6.4-0.2C161.6,385.7,162.5,385.7,163.4,385.8z"/>
<path class="st4" d="M147.1,381.7c0,0.1,0,0.2,0,0.2v0.7c0,0.6,0,1.6-0.1,2.8c-0.2,3.5-0.6,7-1.2,10.4c-1,5.1-2.4,10.1-4.4,14.9
	c-4.7,11.8-12.3,22.4-22,30.6c-4,3.4-8.2,6.3-12.8,8.8c-3,1.7-6.2,3.2-9.5,4.5c-1.1,0.5-2.1,0.7-2.7,1l-0.7,0.2
	c-0.1,0-0.2,0.1-0.2,0.1c0.1-0.1,0.1-0.1,0.2-0.1l0.7-0.3c0.6-0.2,1.5-0.6,2.6-1c3.2-1.3,6.3-2.9,9.4-4.6c20.2-11.5,34.5-31.2,39-54
	c0.7-3.4,1.1-6.9,1.4-10.3c0.1-1.2,0.1-2.2,0.2-2.8c0-0.3,0-0.5,0-0.7C147.1,382,147.1,381.8,147.1,381.7z"/>
<path class="st3" d="M236.9,273c0,0-10.7-14.5-35.5-12.4c0,0,25.2-19.4,10.4-39.3c0,0,31.9,9.4,32.2-30.4c0,0,5.8,37,35.9,26.5
	c0,0,2.1,29.4,23,23.9c-10.1,9.9-19.9,18.6-17.9,31.3"/>
<g class="st8">
	<path class="st4" d="M236.9,273c0,0-10.7-14.5-35.5-12.4c0,0,25.2-19.4,10.4-39.3c0,0,31.9,9.4,32.2-30.4c0,0,5.8,37,35.9,26.5
		c0,0,2.1,29.4,23,23.9c-10.1,9.9-19.9,18.6-17.9,31.3"/>
</g>
<path class="st3" d="M236.9,273c0,0-0.2-16.9-20.2-15.2c0,0,18.5-10.7,6.6-26.7c0,0,25.6,7.6,25.9-24.4c0,0,4.6,29.7,28.8,21.2
	c0,0-2.9,21.5,13.8,17.2c-8.1,8-11.4,17-9.8,27.2"/>
<g class="st9">
	<path class="st4" d="M236.9,273c0,0-0.2-16.9-20.2-15.2c0,0,18.5-10.7,6.6-26.7c0,0,25.6,7.6,25.9-24.4c0,0,4.6,29.7,28.8,21.2
		c0,0-2.9,21.5,13.8,17.2c-8.1,8-11.4,17-9.8,27.2"/>
</g>
<path class="st3" d="M269.6,160.8c-0.1,0.2-0.1,0.4-0.2,0.6l-0.8,1.8c-0.4,0.8-0.8,1.7-1.2,2.8s-1,2.3-1.5,3.7s-1.1,2.9-1.7,4.6
	s-1.1,3.5-1.7,5.4c-1.1,3.8-2.1,8-3,12.5s-1.3,8.8-1.6,12.8c-0.1,2-0.2,3.9-0.3,5.6s0,3.4,0,4.9s0.1,2.9,0.1,4s0.1,2.2,0.2,3
	s0.1,1.4,0.1,1.9c0,0.2,0,0.5,0,0.7c-0.1-0.2-0.1-0.4-0.1-0.7c0-0.5-0.1-1.1-0.2-1.9c-0.1-0.8-0.2-1.9-0.3-3s-0.2-2.6-0.2-4
	s-0.1-3.1,0-4.9s0.1-3.6,0.2-5.6c0.6-8.6,2.1-17.1,4.6-25.4c0.6-1.9,1.1-3.7,1.8-5.4s1.2-3.2,1.7-4.6s1.1-2.6,1.6-3.7s0.9-2,1.3-2.8
	l0.9-1.7C269.4,161.1,269.5,160.9,269.6,160.8z"/>
<path class="st3" d="M198.1,153.9c-1.8-1.7-3.8-3.2-6-4.5c-2.3-1.1-4.6-1.9-7.1-2.5c0.8-0.1,1.5,0,2.2,0.2c1.8,0.4,3.5,1,5.1,1.8
	c1.6,0.9,3.1,1.9,4.3,3.2C197.2,152.6,197.7,153.2,198.1,153.9z"/>
<path class="st3" d="M205.8,197.4c0.2,0.1,0.3,0.2,0.4,0.4l1.1,1.2c1,1,2.3,2.6,3.9,4.6s3.4,4.4,5.4,7.1s3.9,5.9,5.9,9.2
	s3.6,6.6,5.1,9.7s2.6,5.8,3.5,8.2s1.6,4.3,2,5.7c0.2,0.6,0.3,1.1,0.5,1.6c0.1,0.2,0.1,0.4,0.1,0.6c-0.1-0.2-0.2-0.3-0.2-0.5
	l-0.6-1.5c-0.5-1.3-1.2-3.2-2.1-5.6s-2.2-5.1-3.6-8.1s-3.1-6.3-5.1-9.6s-3.9-6.4-5.8-9.2s-3.7-5.2-5.3-7.2s-2.9-3.6-3.8-4.7l-1-1.2
	C206,197.7,205.9,197.6,205.8,197.4z"/>
<path class="st3" d="M274.5,202.5c0,0.2-0.1,0.3-0.2,0.5l-0.7,1.2c-0.3,0.5-0.7,1.2-1.1,2s-0.9,1.7-1.3,2.7c-1,2-2,4.4-3,7.2
	c-2.1,6-3.5,12.2-4.2,18.5c-0.3,2.9-0.4,5.5-0.4,7.7c0,1.1,0,2.1,0,3s0.1,1.6,0.1,2.2s0,1,0.1,1.4c0,0.2,0,0.3,0,0.5
	c0-0.2-0.1-0.3-0.1-0.5c0-0.4-0.1-0.9-0.2-1.4s-0.1-1.4-0.2-2.2s-0.1-1.9-0.1-3c0-2.6,0-5.2,0.3-7.8c0.6-6.3,2-12.6,4.2-18.6
	c0.9-2.4,1.9-4.8,3.1-7.2c0.5-1,1-1.9,1.4-2.6s0.8-1.4,1.1-2s0.6-0.9,0.8-1.2C274.3,202.8,274.4,202.6,274.5,202.5z"/>
<path class="st3" d="M294.1,206.4c0,0.1-0.8,0.7-2.2,1.9c-3.5,3-6.4,6.6-8.5,10.7c-0.4,0.9-0.9,1.7-1.4,2.5c0.2-0.9,0.6-1.8,1-2.7
	c1-2.1,2.2-4.1,3.7-5.9c1.4-1.8,3.1-3.5,4.9-4.9C292.5,207.4,293.3,206.8,294.1,206.4z"/>
<path class="st3" d="M210.6,231.9c0.9,0.4,1.7,0.9,2.4,1.5c1.9,1.4,3.6,3,5.2,4.7c1.6,1.7,2.9,3.6,4.1,5.6c0.5,0.8,1,1.7,1.3,2.6
	c-0.6-0.8-1.1-1.6-1.6-2.4c-1.3-1.9-2.7-3.7-4.2-5.5c-1.5-1.7-3.2-3.3-5-4.7C212.1,233.2,211.3,232.6,210.6,231.9z"/>
<path class="st3" d="M205.6,222.6c-0.1,0.1-2.1-1-4.9-1.7s-5.1-0.7-5.1-0.9C199.1,219.6,202.7,220.6,205.6,222.6L205.6,222.6z"/>
<path class="st10" d="M185,191.3c0.1-0.6,0.4-1.1,0.7-1.7l-0.9-1.4l1.9-2l1.4,0.9c0.5-0.3,1.1-0.5,1.6-0.7l0.3-1.6l2.7-0.1l0.4,1.6
	c0.6,0.1,1.1,0.4,1.7,0.6l1.4-0.9l2,1.9l-0.9,1.4c0.3,0.5,0.6,1.1,0.7,1.6l1.6,0.3v2.7l-1.6,0.4c-0.1,0.6-0.4,1.1-0.7,1.6l0.9,1.4
	l-1.9,2l-1.4-0.9c-0.5,0.3-1.1,0.6-1.6,0.7L193,201h-2.7l-0.4-1.6c-0.6-0.1-1.1-0.4-1.7-0.7l-1.4,0.9l-2-1.9l0.9-1.4
	c-0.3-0.5-0.6-1.1-0.7-1.6l-1.6-0.3v-2.7L185,191.3L185,191.3z M188.6,192.9c0,1.6,1.4,2.9,3,2.9c1.6,0,2.9-1.4,2.9-3
	c0-1.6-1.4-2.9-3-2.9C189.9,189.9,188.6,191.2,188.6,192.9C188.6,192.9,188.6,192.9,188.6,192.9L188.6,192.9z"/>
<path class="st11" d="M299.6,265.2c0.1-0.4,0.3-0.8,0.5-1.2l-0.7-1l1.4-1.5l1,0.6c0.4-0.2,0.8-0.4,1.2-0.5l0.2-1.2h2l0.3,1.2
	c0.4,0.1,0.8,0.3,1.2,0.5l1-0.7l1.5,1.4l-0.6,1c0.2,0.4,0.4,0.8,0.5,1.2l1.2,0.2v2l-1.2,0.3c-0.1,0.4-0.3,0.8-0.5,1.2l0.7,1
	l-1.4,1.5l-1-0.6c-0.4,0.2-0.8,0.4-1.2,0.5l-0.2,1.2h-2l-0.3-1.2c-0.4-0.1-0.8-0.3-1.2-0.5l-1,0.7l-1.4-1.4l0.6-1
	c-0.2-0.4-0.4-0.8-0.5-1.2l-1.2-0.2v-2L299.6,265.2L299.6,265.2z M302.2,266.3c0,1.2,1,2.1,2.2,2.1s2.1-1,2.1-2.2s-1-2.1-2.2-2.1
	S302.2,265.1,302.2,266.3z"/>
<rect x="274.2" y="182.1" transform="matrix(0.4291 -0.9033 0.9033 0.4291 -7.1033 357.6697)" class="st7" width="10.4" height="4.7"/>
<path class="st1" d="M275,188.2c0.4,0.1,0.8,0.3,1.2,0.5c0.8,0.3,1.8,0.8,3.1,1.4l-0.2,0.1c1.1-2.4,2.7-5.8,4.4-9.4
	c-0.1-0.3,0.1,0.4,0.1,0.4h-0.1h-0.1l-0.1-0.1l-0.3-0.1l-0.6-0.3l-1.1-0.5l-2.1-1l0.3-0.1c-1.3,2.7-2.5,5-3.3,6.6
	c-0.4,0.8-0.7,1.4-1,1.9C275.3,187.8,275.2,188,275,188.2c0.1-0.2,0.2-0.4,0.3-0.6c0.2-0.5,0.5-1.2,0.9-1.9c0.8-1.7,1.8-4.1,3.1-6.9
	l0.1-0.2l0.2,0.1l2.1,1l1.1,0.5l0.5,0.3l0.3,0.1l0.1,0.1h0.1h0.1c0-0.1,0.2,0.7,0.1,0.4c-1.7,3.7-3.3,7-4.5,9.4l-0.1,0.2l-0.2-0.1
	c-1.3-0.7-2.4-1.2-3.1-1.6C275.7,188.6,275.3,188.4,275,188.2z"/>
<path class="st7" d="M283.4,175.8c-2.2-1-4.8-0.1-5.8,2c0,0,0,0,0,0l7.9,3.7C286.5,179.4,285.5,176.8,283.4,175.8
	C283.4,175.8,283.4,175.8,283.4,175.8z"/>
<path class="st1" d="M283.4,175.8c0.2,0,0.3,0.1,0.5,0.2c0.4,0.2,0.8,0.5,1.1,0.9c0.5,0.6,0.8,1.3,1,2c0.2,1,0.1,1.9-0.3,2.8
	l-0.1,0.2l-0.2-0.1l-3.9-1.9l-3.9-1.9l-0.2-0.1l0.1-0.2c0.4-0.9,1.1-1.6,2-2c0.7-0.3,1.4-0.5,2.2-0.5c0.5,0,1,0.1,1.4,0.3
	C283.2,175.6,283.4,175.7,283.4,175.8c-0.6-0.1-1.2-0.2-1.8-0.3c-0.7,0-1.4,0.2-2,0.6c-0.8,0.4-1.4,1.1-1.8,1.9l-0.1-0.3l3.9,1.9
	l3.9,1.9l-0.3,0.1c0.4-0.8,0.5-1.7,0.4-2.6c-0.1-0.7-0.4-1.3-0.8-1.9C284.3,176.5,283.9,176.1,283.4,175.8z"/>
<path class="st7" d="M283.5,178.2c0.3-1-0.1-2.1-0.9-2.8"/>
<path class="st1" d="M282.6,175.4c0.1-0.1,0.8,0.3,1.1,1.2s-0.1,1.7-0.2,1.6s0-0.7-0.3-1.4S282.5,175.6,282.6,175.4z"/>
<path class="st1" d="M278.6,180.1c0.8,0.2,1.6,0.5,2.3,0.9c0.8,0.3,1.5,0.6,2.2,1.1c-0.9,0-1.7-0.2-2.4-0.6
	C279.4,180.9,278.6,180.2,278.6,180.1z"/>
<path class="st1" d="M278.1,181.2c0.8,0.2,1.6,0.6,2.3,1c0.8,0.3,1.5,0.6,2.2,1.1c-0.9,0-1.7-0.2-2.4-0.6
	C278.9,182,278,181.3,278.1,181.2z"/>
<path class="st1" d="M277.6,182.3c0.8,0.2,1.6,0.5,2.3,0.9c0.8,0.3,1.5,0.6,2.2,1.1c-0.9,0-1.7-0.2-2.4-0.6
	C278.4,183.1,277.5,182.4,277.6,182.3z"/>
<path class="st1" d="M277.1,183.4c0.8,0.2,1.6,0.6,2.3,1c0.8,0.3,1.5,0.6,2.2,1.1c-0.9,0-1.7-0.2-2.4-0.6
	C277.9,184.2,277,183.5,277.1,183.4z"/>
<path class="st1" d="M276.5,184.5c0.8,0.2,1.6,0.5,2.3,0.9c0.8,0.3,1.5,0.6,2.2,1.1C279.4,186.4,277.8,185.7,276.5,184.5
	L276.5,184.5z"/>
<path class="st1" d="M276,185.6c0.8,0.2,1.6,0.5,2.3,0.9c0.8,0.3,1.5,0.6,2.2,1.1C278.8,187.5,277.2,186.8,276,185.6L276,185.6z"/>
<path class="st1" d="M275.5,186.7c0.8,0.2,1.6,0.6,2.3,1c0.8,0.3,1.5,0.6,2.2,1.1c-0.9,0-1.7-0.2-2.4-0.6
	C276.3,187.6,275.4,186.8,275.5,186.7z"/>
<rect x="171.8" y="261.9" transform="matrix(0.9107 -0.4131 0.4131 0.9107 -93.3508 96.7458)" class="st7" width="10.4" height="4.7"/>
<path class="st1" d="M182.8,264.2c-0.2-0.4-0.4-0.8-0.6-1.2c-0.4-0.7-0.9-1.8-1.5-3l0.2,0.1c-2.4,1.1-5.8,2.7-9.5,4.4
	c-0.1,0.3,0.1-0.4,0.1-0.3l0,0l0,0l0,0v0.1l0.1,0.1l0.1,0.3l0.2,0.6c0.2,0.4,0.3,0.7,0.5,1.1l0.9,2.1l-0.3-0.1
	c2.7-1.2,5.1-2.2,6.8-3l2-0.8C182.2,264.4,182.4,264.3,182.8,264.2c-0.3,0.1-0.5,0.2-0.7,0.3l-1.9,0.9c-1.7,0.8-4,2-6.9,3.2
	l-0.2,0.1l-0.1-0.2c-0.3-0.7-0.6-1.4-1-2.1c-0.2-0.4-0.3-0.7-0.5-1.1l-0.2-0.5l-0.1-0.3l-0.1-0.1v-0.1v0l0,0l0.1-0.3
	c3.7-1.7,7.1-3.2,9.5-4.2l0.2-0.1l0.1,0.2c0.6,1.4,1.1,2.5,1.4,3.2C182.5,263.4,182.6,263.8,182.8,264.2z"/>
<path class="st7" d="M168.4,268.4c1,2.2,3.6,3.2,5.8,2.2c0,0,0,0,0,0l-3.6-7.9C168.4,263.6,167.4,266.2,168.4,268.4
	C168.4,268.3,168.4,268.4,168.4,268.4z"/>
<path class="st1" d="M168.4,268.4c0,0-0.1-0.1-0.3-0.4c-0.2-0.5-0.3-0.9-0.3-1.4c0-0.8,0.2-1.5,0.5-2.2c0.5-0.9,1.2-1.6,2.1-2
	l0.2-0.1l0.1,0.2c0.6,1.2,1.2,2.6,1.8,4s1.2,2.7,1.8,4l0.1,0.2l-0.2,0.1c-0.9,0.4-1.9,0.5-2.8,0.3c-0.7-0.2-1.4-0.5-2-1
	c-0.4-0.3-0.7-0.7-0.9-1.1C168.4,268.6,168.4,268.4,168.4,268.4c0.3,0.6,0.7,1,1.2,1.5c1.3,1,3,1.2,4.4,0.5l-0.1,0.3l-1.8-4
	c-0.6-1.4-1.2-2.7-1.8-4l0.3,0.1c-1.5,0.7-2.4,2.1-2.5,3.7C168.2,267.1,168.3,267.8,168.4,268.4z"/>
<path class="st7" d="M169.9,266.4c-0.9,0.6-1.3,1.6-1.1,2.7"/>
<path class="st1" d="M168.8,269.1c-0.1,0.1-0.4-0.7-0.1-1.6s1.2-1.2,1.2-1.1s-0.4,0.6-0.7,1.3S168.9,269.1,168.8,269.1z"/>
<path class="st1" d="M174.8,268.1c-0.5-0.7-0.9-1.4-1.1-2.2c-0.4-0.7-0.8-1.5-1-2.3C173.9,264.8,174.6,266.4,174.8,268.1z"/>
<path class="st1" d="M175.9,267.6c-0.5-0.7-0.9-1.4-1.1-2.2c-0.4-0.7-0.8-1.5-1-2.3c0.1-0.1,0.9,0.8,1.5,2
	C175.7,265.9,175.9,266.7,175.9,267.6z"/>
<path class="st1" d="M177,267.1c-0.5-0.7-0.9-1.4-1.1-2.2c-0.4-0.7-0.8-1.5-1-2.3C176.1,263.8,176.8,265.4,177,267.1z"/>
<path class="st1" d="M178.1,266.6c-0.5-0.7-0.9-1.4-1.1-2.2c-0.4-0.7-0.8-1.5-1-2.3c0.7,0.5,1.2,1.2,1.5,2
	C177.9,264.9,178.1,265.7,178.1,266.6z"/>
<path class="st1" d="M179.2,266.1c-0.5-0.7-0.9-1.4-1.1-2.2c-0.4-0.7-0.8-1.5-1-2.3C178.3,262.8,179.1,264.4,179.2,266.1
	L179.2,266.1z"/>
<path class="st1" d="M180.4,265.6c-0.5-0.7-0.9-1.4-1.1-2.2c-0.4-0.7-0.8-1.5-1-2.3c0.7,0.5,1.2,1.2,1.5,2
	C180.1,263.8,180.4,264.7,180.4,265.6z"/>
<path class="st1" d="M181.5,265.1c-0.8-1.4-1.5-2.9-2.1-4.5c0.1-0.1,0.9,0.8,1.5,2C181.3,263.4,181.5,264.2,181.5,265.1z"/>
<path class="st3" d="M201.5,142.4c0,0,12.1,12,15.1,19.4c2.9,7.1,4.8,13.7,4.8,13.7s3.1-5.5,6.6,0s20.1,71.8,22.8,96.7h10.6
	c0,0-4.9-41.7-7.3-46.4s-4.3-6.2-4.3-6.2s-2.7-17.6-4.7-20.3c-1.1-1.6-2.6-2.9-4.3-3.9c0,0-3.5-19.1-8.6-23s-9-1.9-9-1.9
	S220.1,150,201.5,142.4z"/>
<path class="st2" d="M300.7,231c-2.4,0.6-4.7,1.4-7,2.4c-2.2,1.1-4.4,2.3-6.4,3.7c0.5-0.6,1-1.1,1.6-1.5c2.8-2.2,6.1-3.6,9.6-4.4
	C299.2,231.1,299.9,231,300.7,231z"/>
<path class="st2" d="M300.3,228.9c-2.4,0.9-4.8,2-7.1,3.1c-3.7,2.1-6.3,4.4-6.4,4.3c0.5-0.6,1-1.2,1.6-1.6c1.4-1.2,2.9-2.2,4.5-3.1
	c1.6-0.9,3.3-1.6,5.1-2.2C298.7,229.1,299.5,228.9,300.3,228.9z"/>
<path class="st2" d="M298.2,234c0,0.2-2.2,0.2-4.8,0.9s-4.5,1.9-4.6,1.7C291.5,234.6,294.9,233.7,298.2,234L298.2,234z"/>
<path class="st1" d="M274.9,272.2c-1.8-14,2.8-30.4,14-38.3l2.7,2.2c0,0-13.9,8.3-12.9,36.2"/>
<path class="st2" d="M217.4,252c-1.9,0.6-3.7,1.4-5.4,2.4c-1.6,1.1-3.1,2.3-4.6,3.7C209.7,254.7,213.4,252.5,217.4,252z"/>
<path class="st2" d="M217.1,250.8c-1.8,0.8-3.6,1.5-5.4,2.1c-1.8,0.8-3.6,1.4-5.5,2c1.7-1,3.5-1.9,5.3-2.5
	C213.3,251.6,215.2,251.1,217.1,250.8z"/>
<path class="st1" d="M247.9,275.6l-4.8-1.3c1.1-4.1-0.3-8.5-3.6-11.1c-0.4,3.1-2.4,5.8-5.3,7.1c-2.2,0.9-4.6,0.7-6.6-0.4
	c-1.9-0.9-3.2-2.7-3.6-4.7c-0.5-3.2,1.1-6.4,3.9-8c1.1-0.7,2.4-1.1,3.7-1.2c-0.1-0.1-0.2-0.2-0.4-0.3c-4.5-3.2-10.4-3.4-15.1-0.4
	l-2.8-4.1c6.4-4.2,14.8-4,20.9,0.6c1.8,1.4,3.3,3.2,4.4,5.2C245.9,259.9,250,267.9,247.9,275.6L247.9,275.6z M233,260.8
	c-1,0-1.9,0.2-2.8,0.7c-1,0.5-1.6,1.6-1.5,2.8c0.2,0.6,0.6,1,1.1,1.3c0.7,0.4,1.6,0.5,2.4,0.2c1.7-0.9,2.6-2.7,2.3-4.6V261
	C234,260.9,233.5,260.8,233,260.8z"/>
<path class="st3" d="M207.3,182.8c0.5,0.2,0.9,0.4,1.3,0.7c0.9,0.5,2,1.2,3.5,2.2c1.7,1.2,3.3,2.4,4.9,3.8c3.8,3.3,7.2,7,10.1,11.1
	c1.2,1.7,2.3,3.4,3.3,5.2c0.9,1.5,1.5,2.8,1.9,3.7c0.2,0.4,0.4,0.9,0.6,1.4c-0.3-0.4-0.5-0.9-0.8-1.3c-0.4-0.9-1.1-2.1-2-3.6
	s-2-3.2-3.3-5.1c-2.9-4-6.3-7.7-10-11c-1.7-1.6-3.4-2.9-4.7-3.9s-2.6-1.8-3.4-2.4C208.2,183.4,207.7,183.1,207.3,182.8z"/>
<path class="st1" d="M190.4,294.2h0.9l0,0v50.5l0,0h-0.9c-5,0-9-4-9-9v-32.5C181.4,298.2,185.5,294.2,190.4,294.2z"/>
<path class="st1" d="M335.9,294.2h0.9c4.9,0,8.9,4,8.9,8.9l0,0v32.8c0,4.9-4,8.9-8.9,8.9l0,0h-0.9l0,0V294.2L335.9,294.2z"/>
<path class="st3" d="M202.8,284.3H324c7.8,0,14.1,6.3,14.1,14.1v81.8c0,7.8-6.3,14.1-14.1,14.1H202.8c-7.8,0-14.1-6.3-14.1-14.1
	v-81.8C188.7,290.6,195,284.3,202.8,284.3z"/>
<rect x="218" y="337.9" class="st12" width="93.4" height="47.1"/>
<path class="st4" d="M282.4,296c-18.9,0-34.2,15.3-34.2,34.2l0,0h68.5C316.6,311.3,301.3,296,282.4,296
	C282.4,296,282.4,296,282.4,296z"/>
<path class="st7" d="M310,328.6c1.4,0,2.7,0,3.7,0c0.5,0,1,0,1.5,0.1c-0.5,0.1-1,0.1-1.5,0.1c-1,0-2.2,0-3.7,0h-3.7h-1.1
	c-0.1,0-0.3,0-0.4,0c0.1,0,0.3,0,0.4,0l1.1,0L310,328.6z"/>
<path class="st7" d="M307.6,318.2c2.6-1.2,4.8-2.1,4.8-2s-2,1.2-4.6,2.4c-1.6,0.8-3.2,1.5-4.8,2C304.4,319.7,306,318.9,307.6,318.2z
	"/>
<path class="st7" d="M301.2,309.8c1.9-2.2,3.5-3.8,3.7-3.7s-1.4,1.9-3.3,4c-1.1,1.3-2.4,2.6-3.7,3.7
	C298.9,312.4,300,311,301.2,309.8z"/>
<path class="st7" d="M292,304.4c0.5-1.7,1.2-3.3,2-4.8c0.2,0.1-0.5,2.3-1.6,5c-0.6,1.6-1.3,3.2-2.1,4.8
	C290.8,307.7,291.3,306,292,304.4z"/>
<path class="st7" d="M281.5,302.6c0-2.9,0.1-5.2,0.2-5.2s0.3,2.3,0.3,5.2c0,1.7,0,3.5-0.3,5.2C281.5,306.1,281.5,304.3,281.5,302.6z
	"/>
<path class="st7" d="M271,304.5c-1-2.7-1.7-4.9-1.6-5s1.1,2.1,2,4.8c0.7,1.6,1.2,3.3,1.6,5C272.3,307.8,271.6,306.2,271,304.5z"/>
<path class="st7" d="M262,310.1c-1.9-2.1-3.4-3.9-3.3-4s1.8,1.5,3.7,3.7c1.2,1.2,2.3,2.6,3.3,4C264.4,312.6,263.1,311.4,262,310.1z"
	/>
<path class="st7" d="M255.7,318.7c-2.6-1.2-4.7-2.3-4.6-2.4s2.2,0.7,4.8,2c1.6,0.7,3.1,1.5,4.6,2.4
	C258.9,320.1,257.3,319.5,255.7,318.7z"/>
<path class="st7" d="M253.6,328.8c-1.4,0-2.7,0-3.7,0c-0.5,0-1,0-1.5-0.1c0.5-0.1,1-0.1,1.5-0.1c0.9,0,2.2,0,3.7,0l3.7,0.1l1.1,0
	c0.1,0,0.3,0,0.4,0c-0.1,0-0.3,0-0.4,0h-1.1L253.6,328.8z"/>
<path class="st4" d="M225.3,302c0,2.5-2,4.6-4.5,4.6c-2.5,0-4.6-2-4.6-4.5c0-2.5,2-4.6,4.5-4.6c0,0,0,0,0,0
	C223.3,297.5,225.3,299.5,225.3,302z"/>
<path class="st2" d="M225.3,315.7c0,2.5-2,4.6-4.5,4.6c-2.5,0-4.6-2-4.6-4.5c0-2.5,2-4.6,4.5-4.6c0,0,0,0,0,0
	C223.3,311.2,225.3,313.2,225.3,315.7z"/>
<path class="st1" d="M311.4,384.8c0,0,0-0.3,0-0.9s0-1.4,0-2.5c0-2.2,0-5.3,0-9.4c0-8.1-0.1-19.9-0.1-34.3l0.2,0.2l-93.2,0.1l0,0
	l0.3-0.3c0,16.6,0,32.5,0,47l-0.2-0.2l66.9,0.1l19.3,0.1h5.2h1.3L311.4,384.8l-0.4,0h-1.3h-5.1l-19.2,0.1l-67.1,0.1H218v-0.2
	c0-14.5,0-30.4,0-47v-0.3h0.3l93.2,0.1h0.2v0.2c0,14.5-0.1,26.3-0.1,34.4c0,4,0,7.2,0,9.3c0,1,0,1.9,0,2.4S311.4,384.8,311.4,384.8z
	"/>
<path class="st1" d="M204.1,394.1h118.6l0,0v0.6c0,3.4-2.8,6.2-6.2,6.2c0,0,0,0,0,0H210.3c-3.4,0-6.2-2.8-6.2-6.2l0,0L204.1,394.1
	L204.1,394.1L204.1,394.1z"/>
<g class="st6">
	<path d="M301.5,344.4c-0.2,1.3,0.7,2.6,1.9,3c1.3,0.4,2.6-0.1,3.4-1.2c0.7-1.1,0.7-2.5,0-3.7c0,0.9-0.2,1.7-0.8,2.4
		c-0.6,0.7-1.4,1-2.3,0.9c-0.9-0.1-1.5-0.8-1.7-1.6"/>
</g>
<path class="st7" d="M306.8,343.3c0,1.5-1.2,2.8-2.8,2.8c-1.5,0-2.8-1.2-2.8-2.8c0-1.5,1.2-2.8,2.8-2.8c0,0,0,0,0,0
	C305.6,340.6,306.8,341.8,306.8,343.3C306.8,343.3,306.8,343.3,306.8,343.3z"/>
<path class="st1" d="M306.8,343.3c-0.1-0.2-0.1-0.4-0.2-0.6c-0.2-0.6-0.5-1.1-1-1.4c-0.7-0.5-1.6-0.6-2.4-0.3
	c-1.3,0.5-2,1.9-1.5,3.3c0.3,0.7,0.8,1.2,1.5,1.5c0.8,0.3,1.7,0.2,2.4-0.3c0.5-0.3,0.8-0.8,1-1.4
	C306.7,343.8,306.7,343.5,306.8,343.3c0,0,0.1,0.2,0,0.7c-0.1,0.7-0.5,1.2-1,1.6c-0.8,0.6-1.9,0.8-2.8,0.5c-1.6-0.6-2.4-2.3-1.8-3.8
	c0.3-0.8,1-1.5,1.8-1.8c1-0.3,2-0.2,2.8,0.5c0.5,0.4,0.9,1,1,1.6C306.9,343.1,306.8,343.3,306.8,343.3z"/>
<path class="st1" d="M305.3,342.1c0,0.1-0.6,0.5-1.2,1.1s-0.9,1.3-1.1,1.2s0-0.9,0.7-1.6S305.3,342,305.3,342.1z"/>
<path class="st1" d="M305.3,344.2c-0.1,0.1-0.6-0.4-1.3-0.9s-1.3-0.7-1.3-0.9s0.8-0.1,1.6,0.4S305.4,344.1,305.3,344.2z"/>
<g class="st6">
	<path d="M302.8,378.6c-0.1,1.3,0.7,2.6,1.9,3c1.3,0.4,2.6-0.1,3.4-1.2c0.7-1.1,0.7-2.5,0-3.7c0,0.9-0.2,1.7-0.8,2.3
		c-0.6,0.7-1.4,1-2.2,0.9c-0.9-0.1-1.5-0.8-1.7-1.6"/>
</g>
<circle class="st7" cx="305.4" cy="377.5" r="2.8"/>
<path class="st1" d="M308.1,377.5c0,0-0.1-0.2-0.2-0.6c-0.2-0.6-0.5-1.1-1-1.4c-0.7-0.5-1.6-0.6-2.4-0.3c-1.3,0.5-1.9,2-1.4,3.3
	c0.5,1.3,2,1.9,3.3,1.4c0.2-0.1,0.4-0.2,0.6-0.3c0.5-0.3,0.8-0.8,1-1.4C308,377.8,308.1,377.5,308.1,377.5c0,0,0.1,0.3,0,0.7
	c-0.1,0.7-0.5,1.2-1,1.6c-0.8,0.6-1.9,0.8-2.8,0.5c-1.6-0.6-2.4-2.3-1.8-3.8c0.3-0.8,1-1.5,1.8-1.8c1-0.3,2-0.1,2.8,0.5
	c0.5,0.4,0.9,1,1,1.6C308.2,377.3,308.1,377.5,308.1,377.5z"/>
<path class="st1" d="M306.6,376.3c0,0.1-0.6,0.5-1.2,1.1s-0.9,1.3-1.1,1.2s0-0.9,0.7-1.6S306.6,376.2,306.6,376.3z"/>
<path class="st1" d="M306.6,378.4c-0.1,0.1-0.6-0.4-1.3-0.9s-1.3-0.7-1.3-0.9s0.8-0.1,1.6,0.4S306.7,378.3,306.6,378.4z"/>
<g class="st6">
	<path d="M222.4,344.4c-0.1,1.3,0.7,2.6,1.9,3c1.3,0.3,2.6-0.2,3.4-1.2c0.7-1.1,0.7-2.5,0-3.7c0,0.9-0.2,1.7-0.8,2.4
		c-0.6,0.7-1.4,1-2.2,0.9c-0.9-0.1-1.6-0.8-1.7-1.6"/>
</g>
<circle class="st7" cx="225" cy="343.3" r="2.8"/>
<path class="st1" d="M227.7,343.3c0,0-0.1-0.2-0.2-0.6c-0.2-0.6-0.5-1.1-1-1.4c-0.7-0.5-1.6-0.6-2.4-0.3c-1.3,0.5-2,1.9-1.5,3.3
	c0.3,0.7,0.8,1.2,1.5,1.5c0.8,0.3,1.7,0.2,2.4-0.3c0.5-0.3,0.8-0.8,1-1.4C227.7,343.5,227.7,343.3,227.7,343.3
	c0.1,0.2,0.1,0.5,0,0.7c-0.1,0.6-0.5,1.2-1,1.6c-0.8,0.6-1.9,0.8-2.8,0.5c-1.6-0.6-2.4-2.3-1.8-3.8c0.3-0.8,1-1.5,1.8-1.8
	c1-0.3,2-0.2,2.8,0.5c0.5,0.4,0.9,1,1,1.6C227.8,342.8,227.8,343.1,227.7,343.3z"/>
<path class="st1" d="M226.2,342.1c0,0.1-0.6,0.5-1.2,1.1s-0.9,1.3-1.1,1.2s0-0.9,0.7-1.6S226.2,342,226.2,342.1z"/>
<path class="st1" d="M226.2,344.1c-0.1,0.1-0.6-0.4-1.3-0.9s-1.3-0.7-1.3-0.9s0.8-0.1,1.6,0.4S226.4,344.1,226.2,344.1z"/>
<g class="st6">
	<path d="M221.8,378.3c-0.2,1.3,0.7,2.6,1.9,3c1.3,0.4,2.6-0.1,3.4-1.2c0.7-1.1,0.7-2.5,0-3.7c0,0.8-0.2,1.7-0.8,2.3
		c-0.6,0.7-1.4,1-2.3,0.9c-0.9-0.1-1.5-0.8-1.7-1.6"/>
</g>
<circle class="st7" cx="224.4" cy="377.2" r="2.8"/>
<path class="st1" d="M227.1,377.2c0,0,0-0.2-0.2-0.6c-0.2-0.6-0.5-1-1-1.4c-0.7-0.5-1.6-0.6-2.4-0.3c-1.3,0.5-1.9,2-1.4,3.3
	c0.5,1.3,2,1.9,3.3,1.4c0.2-0.1,0.4-0.2,0.6-0.3c0.5-0.3,0.8-0.8,1-1.4C227,377.6,227.1,377.4,227.1,377.2c0,0,0.1,0.3,0,0.7
	c-0.1,0.7-0.5,1.2-1,1.6c-0.8,0.6-1.9,0.8-2.8,0.5c-1.6-0.6-2.4-2.3-1.8-3.8c0.3-0.8,1-1.5,1.8-1.8c1-0.3,2-0.1,2.8,0.5
	c0.5,0.4,0.9,1,1,1.6C227.2,376.9,227.2,377.2,227.1,377.2z"/>
<path class="st1" d="M225.6,376c0,0.1-0.6,0.5-1.2,1.1s-0.9,1.3-1.1,1.2s0-0.9,0.7-1.6S225.6,375.9,225.6,376z"/>
<path class="st1" d="M225.6,378c-0.1,0.1-0.6-0.4-1.3-0.9s-1.3-0.7-1.3-0.9s0.8-0.1,1.6,0.4S225.8,378,225.6,378z"/>
<g class="st6">
	<path d="M218.2,385.1c10.8,2.4,23.5,2.4,35.1,1.9c5.6-0.3,11.8-0.6,16.3,2.8c1,0.7,2.1,1.7,3.3,1.3c1.7-0.6,1.7-3.7,3.5-3.8
		c0.9,0,1.6,0.8,1.9,1.7c0.2,0.9,0.5,1.7,0.8,2.6c0.5,0.8,1.5,1.3,2.3,0.8c1.1-0.9-0.2-2.7,0.2-4.1s2.5-1.5,3.9-1s2.7,1.5,4.2,1.3
		c1-0.3,2-0.8,2.8-1.5c2.6-1.6,5.9-1.7,9-1.8c3.2,0,6.6-0.4,9.9-0.4L218.2,385.1z"/>
</g>
<path class="st1" d="M292.8,349.8c-0.2,0.1-0.3,0.1-0.5,0.2c-0.5,0.1-1,0.3-1.5,0.5c-1.7,0.7-3.4,1.6-4.9,2.8
	c-2,1.4-4.1,3.2-6.8,4.9c-1.4,0.9-3,1.5-4.6,1.9c-1.8,0.3-3.6,0.4-5.3,0.4c-3.6,0-6.8,1.5-9.6,3s-5.3,2.8-7.3,4.2
	c-1.6,1-3,2.2-4.3,3.6c-0.9,1-1.4,1.5-1.4,1.5s0.1-0.2,0.3-0.5c0.3-0.4,0.6-0.8,1-1.2c1.3-1.4,2.7-2.7,4.3-3.7
	c2.3-1.6,4.8-3,7.2-4.3c1.5-0.8,3-1.5,4.5-2.1c1.7-0.6,3.5-0.9,5.3-1c1.8,0,3.5-0.1,5.2-0.4c1.6-0.4,3.1-1,4.5-1.8
	c2.7-1.6,4.9-3.5,6.9-4.8c1.5-1.1,3.2-2,5-2.6c0.5-0.2,1-0.3,1.5-0.4C292.4,349.8,292.6,349.8,292.8,349.8z"/>
<path class="st1" d="M269.1,357.7c-1,0-2-0.2-2.9-0.5c-2.3-0.5-4.6-1.2-6.8-2.1c-2.2-0.9-4.3-1.9-6.3-3.2c-0.9-0.5-1.7-1-2.4-1.7
	c0.9,0.4,1.8,0.9,2.6,1.4c4.1,2.2,8.5,4,13,5.2C267.2,357.1,268.1,357.4,269.1,357.7z"/>
<path class="st3" d="M284.1,325.1c0.8-0.4,23.2-7.6,23.2-7.6l-21.5,12L284.1,325.1z"/>
<path class="st1" d="M281.8,322.6c-4.2,0-7.6,3.4-7.6,7.6l0,0h15.2C289.4,326,286,322.6,281.8,322.6L281.8,322.6z"/>
<path class="st1" d="M205.4,394.1c-0.1,0-0.3-24.4-0.3-54.5s0.1-54.5,0.3-54.5s0.3,24.4,0.3,54.5S205.5,394.1,205.4,394.1z"/>
<path class="st1" d="M324.2,394.1c-0.1,0-0.3-24.4-0.3-54.5s0.1-54.5,0.3-54.5s0.3,24.4,0.3,54.5S324.3,394.1,324.2,394.1z"/>
<circle class="st1" cx="200.4" cy="298.6" r="1.2"/>
<circle class="st1" cx="200.4" cy="320.5" r="1.2"/>
<circle class="st1" cx="200.4" cy="342.4" r="1.2"/>
<circle class="st1" cx="200.4" cy="364.3" r="1.2"/>
<circle class="st1" cx="200.4" cy="386.2" r="1.2"/>
<circle class="st1" cx="330.3" cy="298.6" r="1.2"/>
<circle class="st1" cx="330.3" cy="320.5" r="1.2"/>
<circle class="st1" cx="330.3" cy="342.4" r="1.2"/>
<circle class="st1" cx="330.3" cy="364.3" r="1.2"/>
<circle class="st1" cx="330.3" cy="386.2" r="1.2"/>
<rect x="234.3" y="272.3" class="st2" width="51.1" height="12"/>
<path class="st1" d="M238,284.3c-0.3-1.9-0.3-3.9-0.3-5.8c-0.1-1.9,0-3.9,0.3-5.8c0.3,1.9,0.3,3.9,0.3,5.8
	C238.3,280.4,238.3,282.4,238,284.3z"/>
<path class="st1" d="M243.2,284.3c-0.3-1.9-0.3-3.9-0.3-5.8c-0.1-1.9,0-3.9,0.3-5.8c0.3,1.9,0.3,3.9,0.3,5.8
	C243.6,280.4,243.5,282.4,243.2,284.3z"/>
<path class="st1" d="M248.5,284.3c-0.3-1.9-0.3-3.9-0.3-5.8c-0.1-1.9,0-3.9,0.3-5.8c0.3,1.9,0.3,3.9,0.3,5.8
	C248.8,280.4,248.7,282.4,248.5,284.3z"/>
<path class="st1" d="M253.7,284.3c-0.3-1.9-0.3-3.9-0.3-5.8c-0.1-1.9,0-3.9,0.3-5.8c0.3,1.9,0.3,3.9,0.3,5.8
	C254.1,280.4,254,282.4,253.7,284.3z"/>
<path class="st1" d="M259,284.3c-0.3-1.9-0.3-3.9-0.3-5.8c-0.1-1.9,0-3.9,0.3-5.8c0.3,1.9,0.3,3.9,0.3,5.8
	C259.3,280.4,259.3,282.4,259,284.3z"/>
<path class="st1" d="M264.2,284.3c-0.3-1.9-0.3-3.9-0.3-5.8c-0.1-1.9,0-3.9,0.3-5.8c0.3,1.9,0.3,3.9,0.3,5.8
	C264.6,280.4,264.5,282.4,264.2,284.3z"/>
<path class="st1" d="M269.5,284.3c-0.3-1.9-0.3-3.9-0.3-5.8c-0.1-1.9,0-3.9,0.3-5.8c0.3,1.9,0.3,3.9,0.3,5.8
	C269.8,280.4,269.7,282.4,269.5,284.3z"/>
<path class="st1" d="M274.7,284.3c-0.3-1.9-0.3-3.9-0.3-5.8c-0.1-1.9,0-3.9,0.3-5.8c0.3,1.9,0.3,3.9,0.3,5.8
	C275.1,280.4,275,282.4,274.7,284.3z"/>
<path class="st1" d="M280,284.3c-0.3-1.9-0.3-3.9-0.3-5.8c-0.1-1.9,0-3.9,0.3-5.8c0.3,1.9,0.3,3.9,0.3,5.8
	C280.3,280.4,280.3,282.4,280,284.3z"/>
<g class="st6">
	<path d="M345.7,310.4c1.2,6.3,2.4,12.2,3.6,18.4c-1.2,0.1-2.4,0.1-3.6,0C345.7,322.8,345.7,316.4,345.7,310.4"/>
</g>
<path class="st4" d="M192.1,296c0.1,0,0,18.7-0.4,41.7s-0.7,41.7-0.9,41.7s0-18.7,0.3-41.7S192,296,192.1,296z"/>
<path class="st4" d="M213.9,382c-0.1,0-0.3-9.3-0.3-20.8s0.1-20.8,0.3-20.8s0.3,9.3,0.3,20.8S214,382,213.9,382z"/>
<path class="st4" d="M312.1,287.7c0,0.1-22.9,0.3-51.2,0.3s-51.2-0.1-51.2-0.3s22.9-0.3,51.2-0.3S312.1,287.5,312.1,287.7z"/>
</svg>
