<?xml version="1.0" encoding="UTF-8"?>
<svg id="Layer_2" data-name="Layer 2" xmlns="http://www.w3.org/2000/svg" viewBox="0 0 60 60">
  <defs>
    <style>
      .cls-1, .cls-2 {
        fill: #fff;
      }

      .cls-3 {
        fill: #0e2c44;
      }

      .cls-4 {
        fill: none;
        stroke: #d9ed92;
        stroke-linecap: round;
        stroke-linejoin: round;
        stroke-width: 4px;
      }

      .cls-2 {
        opacity: .55;
      }
    </style>
  </defs>
  <g id="Layer_5" data-name="Layer 5">
    <g>
      <circle class="cls-3" cx="30" cy="30" r="30"/>
      <g>
        <path class="cls-4" d="m13.94,40.6c-.92-11.2,2.44-19.34,9.37-21.99,7.71-2.95,15.45,2.01,19.04,9.44l3.43,7.02"/>
        <polyline class="cls-4" points="51.28 21.87 46.29 36.17 46.29 36.18 32.13 31.24"/>
      </g>
      <path class="cls-1" d="m36.58,54.5c.29-.03.41-.3.38-.78-.12,0-.21,0-.29.01-.12.14-.17.37-.15.69.02.03.05.05.07.08Z"/>
      <path class="cls-2" d="m43.69,21.54c.12,1.97.33,0,0,0h0Z"/>
      <path class="cls-2" d="m23.46,1.38c-2.18,0,.24.94,0,0h0Z"/>
      <path class="cls-2" d="m29.98,51.7c.34,2.02,2.13-.66,0,0h0Z"/>
      <path class="cls-2" d="m53.53,38.73c-.62-.26,0,1.8,0,0h0Z"/>
      <path class="cls-1" d="m54.96,22.16c-1.6-1.44-1.04-.16,0,0h0Z"/>
      <path class="cls-2" d="m50.1,24.98c-.79,0-.22,1.4,0,0h0Z"/>
      <path class="cls-2" d="m45.02,20.6c.14-.89-1.17,0,0,0h0Z"/>
      <path class="cls-2" d="m45.02,53.11c.08.87.1-.65,0,0h0Z"/>
      <path class="cls-2" d="m42.47,48.89c-.82.27.35.74,0,0h0Z"/>
      <path class="cls-2" d="m33.63,43.26c-1.23,0-.2.87,0,0h0Z"/>
      <path class="cls-2" d="m32.97,52.17c.4-.1,1.35-.88,0,0h0Z"/>
      <path class="cls-2" d="m33.63,57.01c-.01-.4-.16-.6-.44-.63.01.4.16.61.44.63Z"/>
      <path class="cls-2" d="m32.64,43.42c.22-.32.03-.42-.11-.63-.38.12-.16.6.11.63Z"/>
      <path class="cls-2" d="m31.75,8.1c1.35-1.84-3.38-.67,0,0h0Z"/>
      <path class="cls-2" d="m29.21,29.04c.31,1.44,2.43-.88,0,0h0Z"/>
      <path class="cls-2" d="m26.89,34.98c.16-1-.92,0,0,0h0Z"/>
      <path class="cls-2" d="m24.46,32.48c-.65-1.72-.55-.1,0,0h0Z"/>
      <path class="cls-2" d="m23.68,9.82c0-1.29-1.35-.06,0,0h0Z"/>
      <path class="cls-2" d="m22.36,3.26c.59-.8-1.51,1.93,0,0h0Z"/>
      <path class="cls-2" d="m20.37,34.04c-.04.78.02-.09,0,0h0Z"/>
      <path class="cls-1" d="m18.82,16.85c-.2-2.31-1.31.3,0,0h0Z"/>
      <path class="cls-2" d="m18.6,18.57c-.01-.4-.16-.61-.44-.62.01.4.16.6.44.62Z"/>
      <path class="cls-1" d="m17.27,26.07c.1-.91-1.65,0,0,0h0Z"/>
      <path class="cls-2" d="m16.39,22.48c.37.15.36-.22.33-.63-.37-.16-.36.22-.33.63Z"/>
      <path class="cls-1" d="m9.32,49.67c-.73-1.6.74,2.91,0,0h0Z"/>
      <path class="cls-2" d="m3.9,20.76c.3.5.02-.32,0,0h0Z"/>
      <path class="cls-2" d="m50.32,18.88c0-1.18-.16.85,0,0h0Z"/>
      <path class="cls-1" d="m46.67,13.41c.24-.52,0-2.13,0,0h0Z"/>
      <path class="cls-2" d="m38.38,2.16c-.22-.37-1.71.14,0,0h0Z"/>
      <path class="cls-2" d="m36.58,54.5c.55.6,1.7,1.05.59-.77-.08,0-.15-.01-.22-.02.03.48-.09.75-.38.78Z"/>
      <path class="cls-2" d="m36.51,54.52s.05-.01.07-.02c-.02-.03-.05-.05-.07-.08,0,.03,0,.06,0,.1Z"/>
      <path class="cls-2" d="m36.95,53.58c-.13,0-.22.07-.29.15.08-.01.18-.02.29-.01,0-.05,0-.09,0-.14Z"/>
      <path class="cls-2" d="m36.66,53.73c-.46.07-.4.38-.15.69-.01-.32.04-.55.15-.69Z"/>
      <path class="cls-2" d="m27.66,37.17c-.12-.51,0,.12,0,0h0Z"/>
      <path class="cls-2" d="m27.22,14.04c1.63.65-.05-1.81,0,0h0Z"/>
      <path class="cls-1" d="m19.15,33.88c-.2.09-.46-.46-.55,0-.11.51,1.01.37.55,0Z"/>
      <path class="cls-1" d="m14.18,38.11c-.2,2.21.22-2.13,0,0h0Z"/>
      <path class="cls-1" d="m12.64,39.92c0,.97,1.19,0,0,0h0Z"/>
      <path class="cls-1" d="m24.92,40.58c2.62.54,0-3.57,0,0h0Z"/>
      <path class="cls-2" d="m26.94,52.35c-1.05-.13,0,.72,0,0h0Z"/>
      <path class="cls-1" d="m18.55,44.37c1.04.02.76-1.58,0,0h0Z"/>
      <path class="cls-1" d="m21.5,46.48c-.34.08-1.9,1.6,0,0h0Z"/>
      <path class="cls-2" d="m3.78,43.9c-1.08,0-.31.22,0,0h0Z"/>
      <path class="cls-1" d="m22.12,36.97c0-.47-2.23,0,0,0h0Z"/>
      <path class="cls-2" d="m8.91,32.75c-.09.58,1.68,0,0,0h0Z"/>
      <path class="cls-2" d="m9.84,31.69c.06-.02-.51.07,0,0h0Z"/>
      <path class="cls-2" d="m5.5,28.52c-.02-1.89-1.66,2.05,0,0h0Z"/>
      <path class="cls-2" d="m9.38,27.7c-1.83,1.42,2.81-.22,0,0h0Z"/>
      <path class="cls-1" d="m3.46,27.69s0,0,.01,0c4.5.22.51-.93-.31-.64.16.07.28.27.3.63Z"/>
      <path class="cls-2" d="m13.73,9.27c.44,0,1.76-.74,0,0h0Z"/>
      <path class="cls-2" d="m15.13,23.94c1.27-.36.37-.74,0,0h0Z"/>
      <path class="cls-2" d="m23.67,22.3c-.31-1.05-.87.58,0,0h0Z"/>
      <path class="cls-2" d="m4.87,18.78c3.34.07.34-.05,0,0h0Z"/>
      <path class="cls-2" d="m15.91,16.31c.24,3.15.19-.02,0,0h0Z"/>
      <path class="cls-1" d="m5.5,12.32s1.3.26,0,0h0Z"/>
      <path class="cls-1" d="m25.85,11.5c5.6-1.41-1.69.09,0,0h0Z"/>
      <path class="cls-2" d="m8.6,9.74c-2.11,0,0,2.81,0,0h0Z"/>
      <path class="cls-2" d="m27.25,7.62c0,1.61,1.06-.37,0,0h0Z"/>
      <path class="cls-2" d="m29.58,1.99c0-2.69-.96,0,0,0h0Z"/>
      <path class="cls-1" d="m16.99,52.82c.53.2.97-.51.31-.47,0,.23-.42.15-.31.47Z"/>
      <path class="cls-1" d="m22.28,44.72c.45.77-.09-1.22,0,0h0Z"/>
      <path class="cls-2" d="m5.65,37.8c-.07-.87,0,.47,0,0h0Z"/>
      <path class="cls-1" d="m2.08,30.99c2.73-.27-4.18-.29,0,0h0Z"/>
      <path class="cls-2" d="m9.54,30.63c-.05-.45-2.2.36,0,0h0Z"/>
      <path class="cls-2" d="m3.48,27.82s0-.08-.01-.13c-.51-.36-.53-.55-.3-.63-.6-.29-1.69,1.09.31.76Z"/>
      <path class="cls-1" d="m3.46,27.69c-.02-.37-.14-.56-.3-.63-.23.08-.21.27.3.63Z"/>
      <path class="cls-2" d="m3.46,27.69c-.02-.37-.14-.56-.3-.63-.23.08-.21.27.3.63Z"/>
      <path class="cls-2" d="m19.95,19.25c-.17.06,0,1.5,0,0h0Z"/>
      <path class="cls-2" d="m26.94,17.72c0,.5,2.67-.44,0,0h0Z"/>
      <path class="cls-1" d="m16.99,14.43c-.16-.98-.95-.05,0,0h0Z"/>
      <path class="cls-1" d="m24.92,13.26c-.35.02.39.03,0,0h0Z"/>
      <path class="cls-2" d="m19.17,7.51c.41-.49-.85-.17,0,0h0Z"/>
      <path class="cls-2" d="m56.35,34.16c-1.55-.36,1.26,1.63,0,0h0Z"/>
      <path class="cls-1" d="m49.04,37.09c1.17.46-.02-.15,0,0h0Z"/>
      <path class="cls-1" d="m31.33,37.91c1.12.1.2-1.48,0,0h0Z"/>
      <path class="cls-2" d="m53.08,32.04c-.05.31.21.39.62.35.05-.31-.21-.38-.62-.35Z"/>
      <path class="cls-2" d="m54.17,31.57c-1.18-.08-.04.57,0,0h0Z"/>
      <path class="cls-2" d="m33.5,28.52c2.12-1.09,0-.71,0,0h0Z"/>
      <path class="cls-2" d="m49.66,28.28c.16-2.11-.43,1.18,0,0h0Z"/>
      <path class="cls-2" d="m25.58,22.42c.12-.01.3-.31,0,0h0Z"/>
      <path class="cls-1" d="m33.04,18.42c.56-.04-.35-.91,0,0h0Z"/>
      <path class="cls-2" d="m42.52,12.91c1.45-1.98-1.48-.25,0,0h0Z"/>
      <path class="cls-1" d="m56.66,25.47h.47c.16-.53-1.05-.39-.47,0Z"/>
      <path class="cls-2" d="m23.25,11.15c1.39-.29,1.65-.75,0,0h0Z"/>
      <path class="cls-2" d="m27.91,4.8c.47-1.22-.04,0,0,0h0Z"/>
    </g>
  </g>
</svg>